<svg xmlns="http://www.w3.org/2000/svg" viewBox="0 0 1125 2436"><defs><style>.cls-1{fill:#fff;}.cls-2{fill:#0e2e3b;}.cls-3{fill:#9cd7f2;}.cls-4{fill:#166678;}</style></defs><title>Asset 1</title><g id="Layer_2" data-name="Layer 2"><g id="Layer_1-2" data-name="Layer 1"><rect class="cls-1" width="1125" height="2436"/><polygon class="cls-2" points="437.06 868.91 554.88 1218.5 568.89 1218.5 686.72 868.91 437.06 868.91"/><path class="cls-3" d="M536.3,1206.84a32.34,32.34,0,0,0,18.58,11.66L437.06,868.91,272.37,810.56C273.12,816.82,255.32,787.19,536.3,1206.84Z"/><path class="cls-3" d="M330.66,831.21l-58.29-20.65c.75,6.26-17.05-23.37,263.93,396.28a32.4,32.4,0,0,0,13.21,10Z"/><path class="cls-3" d="M369.67,666.45l67.39,202.46L561.89,708.72,372,665.18A23.12,23.12,0,0,0,369.67,666.45Z"/><path class="cls-3" d="M686.72,868.91,568.89,1218.5a32.36,32.36,0,0,0,18.59-11.66C660.55,1098,852.28,812.68,852.85,810.05Z"/><path class="cls-3" d="M686.72,868.91l67.36-202.4a25.38,25.38,0,0,0-2.35-1.31L561.89,708.72Z"/><polygon class="cls-4" points="437.06 868.91 686.72 868.91 561.89 708.72 437.06 868.91"/><path class="cls-2" d="M369.67,666.45c-4.44,2.84-5.12,4.52-12.11,14.6-90.94,131.18-86.18,121.26-85.19,129.51l164.69,58.35Z"/><path class="cls-2" d="M330.66,831.21,370.8,669.82l-1.13-3.37c-4.44,2.84-5.12,4.52-12.11,14.6-90.94,131.18-86.18,121.26-85.2,129.51l58.3,20.65Z"/><path class="cls-2" d="M686.72,868.91l166.13-58.86a7.32,7.32,0,0,0-1.41-6.07c-82.39-119-93.82-136.5-97.36-137.47Z"/><path class="cls-4" d="M561.89,708.72,751.73,665.2a23.54,23.54,0,0,0-7.3-2.26h0l-153-23.18C543.29,632.47,522.55,643.49,379,663a23.89,23.89,0,0,0-7,2.18Z"/><path class="cls-4" d="M260.22,1468.93h-38.9V1367.84h38.51q15.59,0,27,6a42.23,42.23,0,0,1,17.57,17.38q6.19,11.33,6.2,27.12t-6.17,27.13a42.17,42.17,0,0,1-17.48,17.37Q275.63,1468.93,260.22,1468.93Zm-11.45-23.3h10.46a30.79,30.79,0,0,0,12.81-2.42,16.41,16.41,0,0,0,8.1-8.34q2.79-5.92,2.79-16.49t-2.84-16.48a16.57,16.57,0,0,0-8.29-8.35,33,33,0,0,0-13.36-2.42h-9.67Z"/><path class="cls-4" d="M350.65,1367.84v101.09H323.2V1367.84Z"/><path class="cls-4" d="M389.94,1468.93H360.32l33.37-101.09H431.2l33.37,101.09H435l-22.11-73.25h-.79ZM384.41,1429h55.68v20.54H384.41Z"/><path class="cls-4" d="M474.24,1367.84H508.4l23.5,57.26h1.18l23.5-57.26h34.15v101.09H563.88v-58.45h-.79l-22.51,57.66H524.39l-22.5-58.05h-.79v58.84H474.24Z"/><path class="cls-4" d="M701.7,1418.38q0,16.89-6.57,28.46a43.79,43.79,0,0,1-17.72,17.52,54.93,54.93,0,0,1-49.83,0,44.05,44.05,0,0,1-17.67-17.57q-6.54-11.58-6.54-28.36t6.54-28.45a43.76,43.76,0,0,1,17.67-17.53,55.22,55.22,0,0,1,49.83,0,43.88,43.88,0,0,1,17.72,17.53Q701.7,1401.5,701.7,1418.38Zm-28.24,0a43.12,43.12,0,0,0-2.39-15.32,19.62,19.62,0,0,0-37.07,0,50.13,50.13,0,0,0,0,30.65,19.62,19.62,0,0,0,37.07,0A43.14,43.14,0,0,0,673.46,1418.38Z"/><path class="cls-4" d="M801.8,1367.84v101.09H778.89l-36.52-53.11h-.59v53.11H714.33V1367.84h23.3l35.93,52.91h.79v-52.91Z"/><path class="cls-4" d="M853.73,1468.93h-38.9V1367.84h38.5q15.6,0,27,6a42.29,42.29,0,0,1,17.57,17.38q6.2,11.33,6.19,27.12t-6.17,27.13a42.14,42.14,0,0,1-17.47,17.37Q869.12,1468.93,853.73,1468.93Zm-11.46-23.3h10.47a30.79,30.79,0,0,0,12.81-2.42,16.43,16.43,0,0,0,8.09-8.34q2.79-5.92,2.79-16.49t-2.84-16.48a16.53,16.53,0,0,0-8.29-8.35,32.94,32.94,0,0,0-13.35-2.42h-9.68Z"/><path class="cls-4" d="M221.32,1635.73V1534.64h27.45v79h40.87v22.12Z"/><path class="cls-4" d="M327,1635.73H297.34l33.37-101.09h37.51l33.37,101.09H372l-22.11-73.25h-.79Zm-5.52-39.89h55.68v20.54H321.43Z"/><path class="cls-4" d="M471.09,1534.64h27.44v64.76q0,11.55-5.5,20a35.91,35.91,0,0,1-15.33,13,53.64,53.64,0,0,1-22.8,4.56q-13.08,0-22.91-4.56a35.51,35.51,0,0,1-15.27-13q-5.46-8.41-5.46-20v-64.76h27.45V1597a16.78,16.78,0,0,0,2.07,8.37,14.92,14.92,0,0,0,5.75,5.75,18,18,0,0,0,16.76,0,15,15,0,0,0,5.72-5.75,16.69,16.69,0,0,0,2.08-8.37Z"/><path class="cls-4" d="M599,1534.64v101.09h-22.9l-36.53-53.11H539v53.11H511.56V1534.64h23.3l35.93,52.91h.79v-52.91Z"/><path class="cls-4" d="M651,1635.73h-38.9V1534.64h38.5q15.6,0,27,6a42.23,42.23,0,0,1,17.57,17.38q6.2,11.32,6.19,27.12t-6.17,27.13a42.09,42.09,0,0,1-17.47,17.37Q666.35,1635.73,651,1635.73Zm-11.46-23.3H650a30.79,30.79,0,0,0,12.81-2.42,16.43,16.43,0,0,0,8.09-8.34q2.79-5.93,2.79-16.49t-2.84-16.48a16.53,16.53,0,0,0-8.29-8.35,32.94,32.94,0,0,0-13.35-2.42H639.5Z"/><path class="cls-4" d="M713.94,1635.73V1534.64h43.63a44.64,44.64,0,0,1,19.7,4.09,30.76,30.76,0,0,1,13.13,11.8q4.68,7.7,4.69,18.46t-4.82,18.31a29.84,29.84,0,0,1-13.47,11.26,50,50,0,0,1-20.21,3.8H730.52V1581h20.54a25.19,25.19,0,0,0,8.27-1.21,10.49,10.49,0,0,0,5.28-3.88,12,12,0,0,0,1.85-7,12.43,12.43,0,0,0-1.85-7.08,10.84,10.84,0,0,0-5.28-4.05,23.33,23.33,0,0,0-8.27-1.31h-9.68v79.18Zm59.23-46.4,25.27,46.4H768.63L744,1589.33Z"/><path class="cls-4" d="M802.59,1534.64h30.6l19.75,41.07h.79l19.74-41.07h30.6L867,1603.94v31.79H839.71v-31.79Z"/></g></g></svg>