<svg xmlns="http://www.w3.org/2000/svg" viewBox="0 0 200.9 178.6"><defs><style>.cls-1{fill:none;}.cls-2{fill:#0e2e3b;}.cls-3{fill:#9cd7f2;}.cls-4{fill:#166678;}</style></defs><title>splashscreen_imageAsset 3</title><g id="Layer_2" data-name="Layer 2"><g id="Layer_2-2" data-name="Layer 2"><polygon class="cls-1" points="20.29 59.55 20.29 59.55 57.07 71.14 57.07 71.13 20.29 59.55"/><polygon class="cls-1" points="143.4 71.14 102.66 178.6 143.4 71.14 143.4 71.14"/><polygon class="cls-2" points="143.4 71.14 57.07 71.14 57.07 71.14 97.82 178.6 102.66 178.6 143.4 71.14 143.4 71.14"/><path class="cls-3" d="M20.28,59.55.13,53.2h0c0,.06,0,.11,0,.15a2,2,0,0,0,0,.22c0,.21.14.52,1,1.76l.29.41.25.35.36.49.41.56C8,64.76,27.08,89.63,91.39,175a10.79,10.79,0,0,0,.9.89l.23.2a11,11,0,0,0,2.08,1.38l.21.11a12.55,12.55,0,0,0,3,1L57.07,71.13,20.28,59.55Z"/><path class="cls-3" d="M34.16,9.94,57.07,71.13l43.17-49.24L34.56,8.51h0a7.26,7.26,0,0,0-.79.39l.39,1Z"/><polygon class="cls-3" points="57.07 71.14 57.07 71.13 57.07 71.14 57.07 71.14 57.07 71.14 57.07 71.14"/><path class="cls-3" d="M200.85,53,143.4,71.13,102.66,178.6a11.51,11.51,0,0,0,6.43-3.59c25.26-33.46,91.56-121.16,91.76-122Z"/><path class="cls-3" d="M143.4,71.13h0L166.7,8.92a9,9,0,0,0-.82-.41L100.24,21.89Z"/><polygon class="cls-4" points="100.24 21.89 57.07 71.14 57.07 71.14 143.4 71.14 143.4 71.14 100.24 21.89"/><path class="cls-2" d="M20.28,59.55h0L57.07,71.13h0L34.16,9.94h0l-.39-1h0c-1.53.87-1.77,1.39-4.18,4.49C-1.86,53.71-.22,50.66.13,53.2h0l20.15,6.35Z"/><path class="cls-2" d="M200.85,53h0a2.09,2.09,0,0,0-.49-1.87C171.87,14.6,167.92,9.22,166.7,8.92L143.4,71.13Z"/><path class="cls-4" d="M100.24,21.89,165.88,8.51h0a9.22,9.22,0,0,0-2.52-.69L110.45.7C93.81-1.55,86.64,1.84,37,7.84a9,9,0,0,0-2.42.67h0Z"/></g></g></svg>