<svg xmlns="http://www.w3.org/2000/svg" viewBox="0 0 879.98 1756.5"><defs><style>.cls-1,.cls-3,.cls-5{fill:#1b262b;}.cls-2,.cls-4{fill:#eae9da;}.cls-2{stroke:#1b262b;stroke-width:3px;}.cls-2,.cls-3,.cls-5{stroke-linecap:round;stroke-miterlimit:10;}.cls-3,.cls-5{stroke:#eae9da;stroke-width:5px;}.cls-5{fill-rule:evenodd;}</style></defs><title>splashscreen_imageAsset 7</title><g id="Layer_2" data-name="Layer 2"><g id="details-bg"><polygon class="cls-1" points="0 1330.84 0.48 1330.84 0.48 916.8 0 1330.84"/><path class="cls-2" d="M592.08,1334.08l35.93,0a4.37,4.37,0,0,0,4-2.56l-43.87,0A4.36,4.36,0,0,0,592.08,1334.08Z"/><path class="cls-2" d="M520.6,1334l35.93,0a4.37,4.37,0,0,0,4-2.56l-43.88,0A4.38,4.38,0,0,0,520.6,1334Z"/><path class="cls-2" d="M449.12,1333.92l35.94,0a4.39,4.39,0,0,0,4-2.56l-43.87-.05A4.39,4.39,0,0,0,449.12,1333.92Z"/><path class="cls-2" d="M735,1334.25l35.93,0a4.39,4.39,0,0,0,4-2.56l-43.87,0A4.4,4.4,0,0,0,735,1334.25Z"/><path class="cls-2" d="M806.5,1334.33l35.94,0a4.37,4.37,0,0,0,4-2.56l-43.88,0A4.39,4.39,0,0,0,806.5,1334.33Z"/><path class="cls-2" d="M663.55,1334.16l35.93,0a4.36,4.36,0,0,0,4-2.55l-43.88-.05A4.39,4.39,0,0,0,663.55,1334.16Z"/><path class="cls-2" d="M377.65,1333.83l35.93,0a4.37,4.37,0,0,0,4-2.55l-36,0h-7.89A4.39,4.39,0,0,0,377.65,1333.83Z"/><path class="cls-2" d="M91.75,1333.51l35.93,0a4.39,4.39,0,0,0,4-2.56l-43.87,0A4.41,4.41,0,0,0,91.75,1333.51Z"/><path class="cls-2" d="M306.17,1333.75l35.94,0a4.36,4.36,0,0,0,4-2.55l-43.87-.06A4.36,4.36,0,0,0,306.17,1333.75Z"/><path class="cls-2" d="M20.27,1333.42l35.94,0a4.36,4.36,0,0,0,4-2.55l-43.87-.05A4.36,4.36,0,0,0,20.27,1333.42Z"/><path class="cls-2" d="M234.7,1333.67l35.93,0a4.37,4.37,0,0,0,4-2.56l-43.87-.05A4.38,4.38,0,0,0,234.7,1333.67Z"/><path class="cls-2" d="M163.22,1333.59l35.94,0a4.39,4.39,0,0,0,4-2.56l-43.87,0A4.37,4.37,0,0,0,163.22,1333.59Z"/><path class="cls-1" d="M1.43,1326.08l15.69,0a4.3,4.3,0,0,0-1.21,3,4.35,4.35,0,0,0,.4,1.8l43.87.05a4.23,4.23,0,0,0-.81-4.76l29.23,0a4.2,4.2,0,0,0-.82,4.75l43.87,0a4.2,4.2,0,0,0-.8-4.76l29.22,0a4.22,4.22,0,0,0-.81,4.75l43.87,0a4.23,4.23,0,0,0-.8-4.75l29.22,0a4.2,4.2,0,0,0-.82,4.75l43.87.05a4.13,4.13,0,0,0,.41-1.79,4.3,4.3,0,0,0-1.21-3l29.22,0a4.36,4.36,0,0,0-1.21,3,4.26,4.26,0,0,0,.4,1.78l43.87.06a4.25,4.25,0,0,0-.8-4.76l29.22,0a4.38,4.38,0,0,0-1.22,3,4.3,4.3,0,0,0,.4,1.79h7.89l36,0a4.23,4.23,0,0,0-.81-4.76l29.22,0a4.22,4.22,0,0,0-.81,4.75l43.87.05a4.23,4.23,0,0,0-.8-4.75l29.22,0a4.2,4.2,0,0,0-.82,4.75l43.88,0a4.22,4.22,0,0,0-.81-4.75l29.22,0a4.22,4.22,0,0,0-.81,4.75l43.87,0a4.26,4.26,0,0,0,.4-1.78,4.3,4.3,0,0,0-1.2-3l29.22,0a4.27,4.27,0,0,0-.82,4.76l43.88.05a4.23,4.23,0,0,0-.81-4.76l29.22,0a4.22,4.22,0,0,0-.81,4.75l43.87,0a4.23,4.23,0,0,0-.8-4.75l29.22,0a4.25,4.25,0,0,0-.82,4.75l43.88,0a4.22,4.22,0,0,0-.81-4.75l29.23,0a4.2,4.2,0,0,0-.82,4.75h3.91l1.39-1213.6A120.9,120.9,0,0,1,758.58,0H671.76a35.08,35.08,0,0,1-35,32.14A35.07,35.07,0,0,1,601.88,0H574.57a35.07,35.07,0,0,1-35,32A35.08,35.08,0,0,1,504.7,0H477.38a35.08,35.08,0,0,1-35,31.91A35.07,35.07,0,0,1,407.53,0H380.18a35.07,35.07,0,0,1-34.95,31.8A35.08,35.08,0,0,1,310.35,0H283a35.07,35.07,0,0,1-34.94,31.69A35.08,35.08,0,0,1,213.18,0H122.39A120.91,120.91,0,0,1,1.4,117.24L.48,916.8v414h1Zm49.88-1104A146.41,146.41,0,0,1,197.46,76.25l474.92.55A146.4,146.4,0,0,1,818.19,223l-1.06,924.1A146.42,146.42,0,0,1,671,1292.87l-474.92-.55A146.44,146.44,0,0,1,50.24,1146.16Z"/><path class="cls-3" d="M196.06,1292.32l474.92.55a146.42,146.42,0,0,0,146.15-145.82L818.19,223A146.4,146.4,0,0,0,672.38,76.8l-474.92-.55A146.41,146.41,0,0,0,51.31,222.07l-1.07,924.09a146.44,146.44,0,0,0,145.82,146.16Z"/><path class="cls-4" d="M673.71,1754a37.61,37.61,0,0,0-37.45-35.17c-18.61,0-33.36,28.23-36.71,35.17H575.7c-3.34-7-18-35.26-36.62-35.28s-33.33,27.49-36.69,34.28H478.5c-3.35-6.82-18-34.37-36.61-34.39S408.52,1747,405.18,1754H381.34c-3.33-7-18-35.48-36.63-35.5s-33.34,27.67-36.7,34.5H284.14c-3.35-6.85-18-34.59-36.62-34.62A37.47,37.47,0,0,0,210,1753H124.32a122.11,122.11,0,0,0-36-84.53,122.87,122.87,0,0,0-84.81-36.18V1350.65l1-20L4.12,1329h9.29v.06a6.85,6.85,0,0,0,.62,2.83c1,2.24,4.13,3.52,5.42,4l.4.14H56.29a6.72,6.72,0,0,0,6.09-3.92,6.65,6.65,0,0,0,.62-2.76c0-.11,0-.23,0-.35l22,0c0,.1,0,.21,0,.32a6.61,6.61,0,0,0,.6,2.74,6.7,6.7,0,0,0,6,3.9l36.12,0a6.75,6.75,0,0,0,6.1-3.92,6.64,6.64,0,0,0,.61-2.76c0-.12,0-.23,0-.35l22,0v.32a6.5,6.5,0,0,0,.6,2.73,6.65,6.65,0,0,0,6,3.91l36.13,0a6.72,6.72,0,0,0,6.09-3.92,6.5,6.5,0,0,0,.62-2.76c0-.11,0-.23,0-.35l22,0c0,.1,0,.21,0,.31a6.51,6.51,0,0,0,.6,2.74,6.68,6.68,0,0,0,6.05,3.91l36.12,0a6.72,6.72,0,0,0,6.1-3.92,6.64,6.64,0,0,0,.61-2.76c0-.11,0-.23,0-.35l22,0v.32a6.57,6.57,0,0,0,.6,2.74,6.68,6.68,0,0,0,6,3.9l36.13,0a6.72,6.72,0,0,0,6.09-3.92,6.5,6.5,0,0,0,.62-2.76c0-.12,0-.23,0-.35l22,0c0,.1,0,.21,0,.32a6.57,6.57,0,0,0,.6,2.74,6.68,6.68,0,0,0,6.05,3.9l36.12,0a6.72,6.72,0,0,0,6.1-3.92,6.49,6.49,0,0,0,.61-2.76V1329l22,0c0,.1,0,.21,0,.32a6.56,6.56,0,0,0,.6,2.73,6.68,6.68,0,0,0,6,3.91l36.13,0a6.72,6.72,0,0,0,6.09-3.92,6.53,6.53,0,0,0,.62-2.76c0-.11,0-.23,0-.35l22,0c0,.1,0,.21,0,.31a6.69,6.69,0,0,0,6.65,6.65l36.12,0a6.72,6.72,0,0,0,6.1-3.92,6.49,6.49,0,0,0,.61-2.76V1329l22,0c0,.1,0,.21,0,.32a6.45,6.45,0,0,0,.6,2.74A6.68,6.68,0,0,0,592,1336l36.2,0,.16,0c1.1-.15,4.75-.81,5.92-3.37a6.67,6.67,0,0,0,.63-2.61H656.8c0,.1,0,.21,0,.31a6.6,6.6,0,0,0,.61,2.75,6.68,6.68,0,0,0,6,3.9l36.12,0a6.72,6.72,0,0,0,6.1-3.92,6.65,6.65,0,0,0,.62-2.76c0-.11,0-.23,0-.35l22,0c0,.1,0,.21,0,.31a6.58,6.58,0,0,0,.6,2.75,6.69,6.69,0,0,0,6,3.9l36.12,0a6.75,6.75,0,0,0,6.1-3.92,6.64,6.64,0,0,0,.61-2.76c0-.11,0-.23,0-.35l22,0c0,.1,0,.21,0,.31a6.6,6.6,0,0,0,.61,2.75,6.68,6.68,0,0,0,6,3.9l36.13,0a6.72,6.72,0,0,0,6.09-3.92,6.5,6.5,0,0,0,.62-2.76c0-.12,0-.23,0-.35l21.89,0v0a6.85,6.85,0,0,0,.62,2.83,7.09,7.09,0,0,0,5.75,4.09v14.63l-1,282.57A394.3,394.3,0,0,0,817,1669.09c-39.64,28.62-60.32,57.17-61.53,84.91Z"/><path class="cls-1" d="M65.23,1331.47l17.53,0a8.79,8.79,0,0,0,.56,1.61,9.19,9.19,0,0,0,8.32,5.36l36.13,0a9.24,9.24,0,0,0,8.36-5.37,9.08,9.08,0,0,0,.58-1.66l17.52,0a9.65,9.65,0,0,0,.57,1.61,9.17,9.17,0,0,0,8.31,5.36l36.13,0a9.24,9.24,0,0,0,8.36-5.37,8.39,8.39,0,0,0,.58-1.66l17.53,0a8.79,8.79,0,0,0,.56,1.61,9.19,9.19,0,0,0,8.32,5.36l36.13,0a9.24,9.24,0,0,0,8.36-5.37,9.08,9.08,0,0,0,.58-1.66l17.52,0a9.65,9.65,0,0,0,.57,1.61,9.17,9.17,0,0,0,8.31,5.36l36.14,0a9.25,9.25,0,0,0,8.36-5.37,10.12,10.12,0,0,0,.58-1.65h17.52a8.79,8.79,0,0,0,.56,1.61,9.19,9.19,0,0,0,8.32,5.36l36.13,0a9.24,9.24,0,0,0,8.36-5.37,9.08,9.08,0,0,0,.58-1.66l17.52,0a9.27,9.27,0,0,0,8.88,7l36.14,0a9.24,9.24,0,0,0,8.36-5.38,9.5,9.5,0,0,0,.58-1.65l17.52,0a9.61,9.61,0,0,0,.56,1.61,9.2,9.2,0,0,0,8.32,5.36l36.13,0a9.24,9.24,0,0,0,8.36-5.37,9.08,9.08,0,0,0,.58-1.66l17.52,0a9.65,9.65,0,0,0,.57,1.61,9.18,9.18,0,0,0,8.31,5.36l36,0h.33l.33,0c1.81-.24,6.2-1.19,7.86-4.81a8.55,8.55,0,0,0,.45-1.15h17.59a10.48,10.48,0,0,0,.56,1.6,9.19,9.19,0,0,0,8.32,5.36l36.13,0a9.24,9.24,0,0,0,8.36-5.37,9.08,9.08,0,0,0,.58-1.66l17.53,0a8.79,8.79,0,0,0,.56,1.61,9.19,9.19,0,0,0,8.31,5.36l36.13,0a9.25,9.25,0,0,0,8.37-5.37,9.9,9.9,0,0,0,.58-1.66l17.52,0a9.34,9.34,0,0,0,.57,1.61,9.19,9.19,0,0,0,8.31,5.36l36.13,0a9.24,9.24,0,0,0,8.36-5.37,9.08,9.08,0,0,0,.58-1.66l17.48,0a9.42,9.42,0,0,0,.52,1.43,9.52,9.52,0,0,0,5.52,5v12.63l-1,281a390.18,390.18,0,0,0-58.43,34.48c-39.17,28.28-60.14,56.66-62.41,84.44H676a40.09,40.09,0,0,0-39.75-35.17c-9.73,0-19.44,6.62-28.86,19.66A117.41,117.41,0,0,0,598,1751.5H577.25a118,118,0,0,0-9.34-15.55c-9.4-13.08-19.1-19.72-28.85-19.73s-19.4,6.45-28.83,19.16a115.12,115.12,0,0,0-9.38,15.12H480a113.93,113.93,0,0,0-9.34-15.15c-9.4-12.76-19.09-19.23-28.82-19.24s-19.44,6.65-28.87,19.78a118.25,118.25,0,0,0-9.37,15.61H382.9a120.23,120.23,0,0,0-9.34-15.65c-9.41-13.16-19.11-19.84-28.87-19.85s-19.41,6.49-28.84,19.28a114.86,114.86,0,0,0-9.37,15.22h-20.8a115,115,0,0,0-9.34-15.25c-9.41-12.84-19.1-19.35-28.86-19.36a40,40,0,0,0-39.75,34.61h-81a124.52,124.52,0,0,0-36.7-83.8A125.24,125.24,0,0,0,6,1629.87V1350.71l1-19.21h4.29a8.46,8.46,0,0,0,.52,1.43c1.37,3,4.89,4.61,6.87,5.29l.8.28H56.29a9.24,9.24,0,0,0,8.36-5.37,9.08,9.08,0,0,0,.58-1.66m494.43-5a4.08,4.08,0,0,1,1.16,2.85,4.16,4.16,0,0,1-.38,1.72,4.22,4.22,0,0,1-3.82,2.46h0l-36.13,0a4.16,4.16,0,0,1-3.77-2.44,4,4,0,0,1,.78-4.52l-29.31,0A4,4,0,0,1,489,1331a4.21,4.21,0,0,1-3.81,2.46h0l-36.12,0a4.17,4.17,0,0,1-3.78-2.44,4.22,4.22,0,0,1-.37-1.7,4.11,4.11,0,0,1,1.15-2.82l-29.31,0a4.08,4.08,0,0,1,1.16,2.85,4.16,4.16,0,0,1-.38,1.72,4.23,4.23,0,0,1-3.82,2.46h0l-36.13,0a4.16,4.16,0,0,1-3.77-2.44,4,4,0,0,1-.38-1.7,4.11,4.11,0,0,1,1.15-2.82l-29.3,0A4,4,0,0,1,346,1331a4.19,4.19,0,0,1-3.81,2.46h0l-36.12,0a4.15,4.15,0,0,1-4.15-4.14,4.09,4.09,0,0,1,1.15-2.82l-29.31,0a4.08,4.08,0,0,1,.78,4.57,4.23,4.23,0,0,1-3.82,2.46h0l-36.13,0a4.16,4.16,0,0,1-3.77-2.44,4,4,0,0,1,.77-4.52l-29.3,0a4,4,0,0,1,.77,4.57,4.19,4.19,0,0,1-3.82,2.46h0l-36.12,0a4.17,4.17,0,0,1-3.78-2.44,4,4,0,0,1-.37-1.7,4.09,4.09,0,0,1,1.15-2.82l-29.31,0a4.08,4.08,0,0,1,.78,4.57,4.23,4.23,0,0,1-3.82,2.46h0l-36.12,0a4.16,4.16,0,0,1-3.77-2.44,4,4,0,0,1,.77-4.52l-29.3,0a4,4,0,0,1,.77,4.57,4.21,4.21,0,0,1-3.82,2.46h-36s-3.28-1.14-4-2.64a4.35,4.35,0,0,1-.4-1.8,2.85,2.85,0,0,1,1.21-2.56H1l1,4.34-1,19.74v284.19c66.87.07,120.94,54.27,120.86,120.73h90.57c0-18.94,15.72-34.61,35.07-34.61h0c19.37,0,35,34.61,35,34.61h27s15.74-34.5,35.1-34.5h0c19.38,0,35,35.5,35,35.5h27s15.74-35.39,35.1-35.39h0c19.37,0,35,34.39,35,34.39h27s15.73-34.28,35.1-34.28h0c19.37,0,35,35.28,35,35.28h27s15.74-35.17,35.1-35.17h0a35.09,35.09,0,0,1,35,35.17h86.65c.08-66.73,121-120.72,121-120.72l1-284.18v-17.1h-2a4.62,4.62,0,0,1-4-2.66,4.27,4.27,0,0,1-.4-1.79,5.07,5.07,0,0,1,1.22-2.55l-29.26,0a4.17,4.17,0,0,1-3.05,7h0l-36.12,0a4.17,4.17,0,0,1-3.78-2.44,4,4,0,0,1,.78-4.52l-29.31,0a4.13,4.13,0,0,1,1.16,2.85,4,4,0,0,1-.39,1.72,4.21,4.21,0,0,1-3.82,2.46l-36.12,0a4.15,4.15,0,0,1-3.77-2.44,4,4,0,0,1,.77-4.52l-29.3,0a4.17,4.17,0,0,1,1.16,2.85,4.33,4.33,0,0,1-.39,1.72,4.19,4.19,0,0,1-3.82,2.46h0l-36.12,0a4.17,4.17,0,0,1-3.78-2.44,4,4,0,0,1-.38-1.7,4.07,4.07,0,0,1,1.16-2.82H631.18a3.83,3.83,0,0,1,1.2,2.28,4.26,4.26,0,0,1-.4,1.78c-.69,1.51-4,1.94-4,1.94l-36,0a4.17,4.17,0,0,1-3.78-2.44,4.22,4.22,0,0,1-.37-1.7,4.09,4.09,0,0,1,1.15-2.82l-29.31,0Z"/><path class="cls-5" d="M345.58,1659.5V1369.82h-22.9V1659.5Z"/><path class="cls-5" d="M414.31,1659.5V1369.82h-22.9V1659.5Z"/><path class="cls-5" d="M494.5,1659.5V1369.82H471.59V1659.5Z"/><path class="cls-5" d="M735.07,1659.5V1369.82H717.66V1659.5Z"/><path class="cls-5" d="M259.44,1659.5V1369.59H248V1659.5Z"/><path class="cls-5" d="M511.46,1659.5V1369.82H500V1659.5Z"/><path class="cls-5" d="M448.68,1659.5V1369.82H437.23V1659.5Z"/><path class="cls-5" d="M465.64,1659.5V1369.82H454.18V1659.5Z"/><path class="cls-5" d="M586.15,1659.5V1369.82H574.69V1659.5Z"/><path class="cls-5" d="M683.29,1659.5V1369.82H671.83V1659.5Z"/><path class="cls-5" d="M700.7,1659.5V1369.82H689.24V1659.5Z"/><path class="cls-5" d="M763.48,1369.59H752V1659.5h11.46Z"/><path class="cls-5" d="M288.3,1659.5V1369.82h-6V1659.5Z"/><path class="cls-5" d="M528.87,1659.5V1369.82h-6V1659.5Z"/><path class="cls-5" d="M540.32,1659.5V1369.82h-6V1659.5Z"/><path class="cls-5" d="M380,1659.5V1369.82h-6V1659.5Z"/><path class="cls-5" d="M425.77,1659.5V1369.82h-6V1659.5Z"/><path class="cls-5" d="M632,1659.5V1369.82h-6V1659.5Z"/><path class="cls-5" d="M654.88,1659.5V1369.82h-6V1659.5Z"/><path class="cls-5" d="M746.52,1659.5V1369.82h-6V1659.5Z"/><path class="cls-5" d="M270.89,1659.5V1369.82h-5.5V1659.5Z"/><path class="cls-5" d="M603.11,1659.5V1369.82H597.6V1659.5Z"/><path class="cls-5" d="M316.72,1659.5V1369.82h-5.51V1659.5Z"/><path class="cls-5" d="M362.53,1659.5V1369.82H357V1659.5Z"/><path class="cls-5" d="M568.73,1659.5V1369.82h-5.5V1659.5Z"/><path class="cls-4" d="M285,201.25v14.54a34.1,34.1,0,0,1-7.94.71Q258,216.5,258,197.56V167.5h-8v-13h8v-15h17v15h10v13H275v28.32q0,6,6.16,6Z"/><path class="cls-4" d="M311,143.43a10.88,10.88,0,0,1-14.64,0,9.79,9.79,0,0,1-2.83-7.2,10,10,0,0,1,2.83-7.26A10.72,10.72,0,0,1,311,129a10,10,0,0,1,2.83,7.26A9.79,9.79,0,0,1,311,143.43ZM295,216.5v-62h17v62Z"/><path class="cls-4" d="M331.62,208.74q-9-9.53-9.05-23.74t9.05-23.74q9-9.52,22.89-9.53,13.59,0,21.43,7.65t8.93,17.12H367.14a11.71,11.71,0,0,0-4.5-6.8,13.26,13.26,0,0,0-8.25-2.67A12.87,12.87,0,0,0,343.7,172c-2.59,3.27-3.88,7.63-3.88,13.05s1.29,9.77,3.88,13.05A12.87,12.87,0,0,0,354.39,203a13.26,13.26,0,0,0,8.25-2.67,11.71,11.71,0,0,0,4.5-6.8h17.73q-1.1,9.47-8.93,17.12t-21.43,7.65Q340.67,218.27,331.62,208.74Z"/><path class="cls-4" d="M433.84,154.5h21.31l-23.46,26.39,25.14,35.61H436.72L420.44,192,411,202.66V216.5H394v-89h17v55.43Z"/><path class="cls-4" d="M518,190.5H473.19a14.77,14.77,0,0,0,4.72,9.27q3.9,3.36,10.27,3.37a15.26,15.26,0,0,0,7.26-1.72,10.19,10.19,0,0,0,4.66-4.92H517a28.2,28.2,0,0,1-10.68,15.19,30.59,30.59,0,0,1-18.58,5.84q-13.69,0-22.42-9.08t-8.73-23.37q0-13.8,8.73-23t22.3-9.2q13.57,0,22.12,9.14t8.56,23.07Zm-30.56-23.68a13.87,13.87,0,0,0-9.32,3.12,14.54,14.54,0,0,0-4.72,8.56h28.08a14.17,14.17,0,0,0-4.6-8.5A13.86,13.86,0,0,0,487.47,166.82Z"/><path class="cls-4" d="M559,201.25v14.54a34.1,34.1,0,0,1-7.94.71Q532,216.5,532,197.56V167.5h-8v-13h8v-15h17v15h10v13H549v28.32q0,6,6.16,6Z"/><path class="cls-4" d="M584.7,143.43a10.87,10.87,0,0,1-14.63,0,9.75,9.75,0,0,1-2.83-7.2,10,10,0,0,1,2.83-7.26,10.7,10.7,0,0,1,14.63,0,10,10,0,0,1,2.84,7.26A9.76,9.76,0,0,1,584.7,143.43ZM569,216.5v-62h17v62Z"/></g></g></svg>