<svg xmlns="http://www.w3.org/2000/svg" xmlns:xlink="http://www.w3.org/1999/xlink" viewBox="0 0 1125 2436"><defs><style>.cls-1{isolation:isolate;}.cls-10,.cls-11,.cls-12,.cls-13,.cls-14,.cls-2,.cls-3,.cls-4,.cls-5,.cls-6,.cls-7,.cls-8,.cls-9{fill-rule:evenodd;}.cls-2{fill:url(#Áåçûìÿííûé_ãðàäèåíò_165);}.cls-3{fill:url(#Áåçûìÿííûé_ãðàäèåíò_35);}.cls-4{fill:url(#Áåçûìÿííûé_ãðàäèåíò_16);}.cls-5{fill:url(#Áåçûìÿííûé_ãðàäèåíò_165-2);}.cls-6{fill:url(#Áåçûìÿííûé_ãðàäèåíò_35-2);}.cls-7{fill:url(#Áåçûìÿííûé_ãðàäèåíò_16-2);}.cls-8{fill:url(#Áåçûìÿííûé_ãðàäèåíò_188);}.cls-9{fill:url(#Áåçûìÿííûé_ãðàäèåíò_3);}.cls-10{fill:#ad384e;}.cls-11{fill:url(#Áåçûìÿííûé_ãðàäèåíò_165-3);}.cls-12{fill:url(#Áåçûìÿííûé_ãðàäèåíò_42);}.cls-13{fill:url(#Áåçûìÿííûé_ãðàäèåíò_38);}.cls-14{fill:#a94065;opacity:0.6;mix-blend-mode:multiply;}.cls-15{fill:url(#Áåçûìÿííûé_ãðàäèåíò_165-4);}.cls-16{fill:url(#Áåçûìÿííûé_ãðàäèåíò_164);}.cls-17{fill:url(#Áåçûìÿííûé_ãðàäèåíò_164-2);}.cls-18{fill:url(#Áåçûìÿííûé_ãðàäèåíò_165-5);}</style><linearGradient id="Áåçûìÿííûé_ãðàäèåíò_165" x1="1014.24" y1="1447.45" x2="1014.24" y2="1389.9" gradientTransform="translate(1530.65 2627.72) rotate(180)" gradientUnits="userSpaceOnUse"><stop offset="0" stop-color="#f47a00"/><stop offset="1" stop-color="#ffa920"/></linearGradient><linearGradient id="Áåçûìÿííûé_ãðàäèåíò_35" x1="1028" y1="1452.92" x2="1028" y2="1440.73" gradientTransform="translate(1530.65 2627.72) rotate(180)" gradientUnits="userSpaceOnUse"><stop offset="0" stop-color="#f47a00"/><stop offset="1" stop-color="#ff8b1b"/></linearGradient><radialGradient id="Áåçûìÿííûé_ãðàäèåíò_16" cx="1024.55" cy="1413.47" r="23.38" gradientTransform="translate(1530.65 2627.72) rotate(180)" gradientUnits="userSpaceOnUse"><stop offset="0" stop-color="#ffb500"/><stop offset="1" stop-color="#ffaf39"/></radialGradient><linearGradient id="Áåçûìÿííûé_ãðàäèåíò_165-2" x1="689.71" y1="1446.32" x2="689.71" y2="1389.63" gradientTransform="matrix(1, 0, 0, -1, -75.78, 2627.72)" xlink:href="#Áåçûìÿííûé_ãðàäèåíò_165"/><linearGradient id="Áåçûìÿííûé_ãðàäèåíò_35-2" x1="703.47" y1="1451.79" x2="703.47" y2="1439.6" gradientTransform="matrix(1, 0, 0, -1, -75.78, 2627.72)" xlink:href="#Áåçûìÿííûé_ãðàäèåíò_35"/><radialGradient id="Áåçûìÿííûé_ãðàäèåíò_16-2" cx="700.35" cy="1412.58" r="23.12" gradientTransform="matrix(1, 0, 0, -1, -75.78, 2627.72)" xlink:href="#Áåçûìÿííûé_ãðàäèåíò_16"/><linearGradient id="Áåçûìÿííûé_ãðàäèåíò_188" x1="965.47" y1="1472.32" x2="965.47" y2="1462.31" gradientTransform="translate(1530.65 2627.72) rotate(180)" gradientUnits="userSpaceOnUse"><stop offset="0" stop-color="#c5453b"/><stop offset="1" stop-color="#c24d28"/></linearGradient><radialGradient id="Áåçûìÿííûé_ãðàäèåíò_3" cx="965.6" cy="1349.98" r="41.99" gradientTransform="translate(1530.65 2627.72) rotate(180)" gradientUnits="userSpaceOnUse"><stop offset="0" stop-color="#f98336"/><stop offset="1" stop-color="#e26221"/></radialGradient><linearGradient id="Áåçûìÿííûé_ãðàäèåíò_165-3" x1="966.4" y1="1397.98" x2="966.4" y2="1378.68" xlink:href="#Áåçûìÿííûé_ãðàäèåíò_165"/><radialGradient id="Áåçûìÿííûé_ãðàäèåíò_42" cx="966.81" cy="1367.58" r="45.15" gradientTransform="translate(1530.65 2627.72) rotate(180)" gradientUnits="userSpaceOnUse"><stop offset="0" stop-color="#ffb500"/><stop offset="1" stop-color="#ffb72d"/></radialGradient><radialGradient id="Áåçûìÿííûé_ãðàäèåíò_38" cx="960.34" cy="1464.04" r="43.23" gradientTransform="translate(1530.65 2627.72) rotate(180)" gradientUnits="userSpaceOnUse"><stop offset="0" stop-color="#ffb500"/><stop offset="1" stop-color="#ffa216"/></radialGradient><linearGradient id="Áåçûìÿííûé_ãðàäèåíò_165-4" x1="911.98" y1="1458.67" x2="925.92" y2="1458.67" xlink:href="#Áåçûìÿííûé_ãðàäèåíò_165"/><linearGradient id="Áåçûìÿííûé_ãðàäèåíò_164" x1="1011.81" y1="1460.12" x2="1018.95" y2="1460.12" gradientTransform="translate(1530.65 2627.72) rotate(180)" gradientUnits="userSpaceOnUse"><stop offset="0" stop-color="#ffa920"/><stop offset="1" stop-color="#f47a00"/></linearGradient><linearGradient id="Áåçûìÿííûé_ãðàäèåíò_164-2" x1="1018.95" y1="1373.44" x2="1028.91" y2="1373.44" xlink:href="#Áåçûìÿííûé_ãðàäèåíò_164"/><linearGradient id="Áåçûìÿííûé_ãðàäèåíò_165-5" x1="904.51" y1="1376.06" x2="911.07" y2="1376.06" xlink:href="#Áåçûìÿííûé_ãðàäèåíò_165"/></defs><title>seat</title><g class="cls-1"><g id="Layer_1" data-name="Layer 1"><polygon class="cls-2" points="507.21 1185.99 514.42 1180.27 525.61 1229.74 515.29 1237.82 507.21 1185.99"/><path class="cls-3" d="M514.42,1180.27l-1.11-5.47s-12.78,2.65-22.42,12.19l16.33-1Z"/><path class="cls-4" d="M508.26,1243.6s-11.52-28.46-17.37-56.61l17.69-2.09s4.66,33.24,12.74,49Z"/><polygon class="cls-5" points="623.12 1187.12 615.92 1181.4 604.73 1230.87 616.21 1238.09 623.12 1187.12"/><path class="cls-6" d="M615.92,1181.4l1.11-5.47s12.77,2.65,22.42,12.19l-16.33-1Z"/><path class="cls-7" d="M622.53,1244.25s11.79-29.11,16.92-56.13l-17.7-2.09s-4,31.35-12.06,47.08Z"/><path class="cls-8" d="M618.67,1165.41l-10.48-6.54s-43.08-7.81-88.21,0l-8.28,6.54Z"/><polygon class="cls-9" points="624.37 1279.84 623.23 1274.88 507.14 1274.88 505.74 1280.6 624.37 1279.84"/><polygon class="cls-10" points="623.23 1274.88 609.55 1240.63 523.4 1239.65 507.14 1274.88 623.23 1274.88"/><path class="cls-11" d="M625.85,1249s-8.55-14-19-19.24l-81.21-.06s-12.24,9.23-22.95,18.68C502.66,1248.42,575.14,1247.08,625.85,1249Z"/><path class="cls-12" d="M622.48,1273.25a44.86,44.86,0,0,0,3.37-24.21s-62.11-4.72-123.19-.62c0,0-5.07,11.79,5.2,25.11Z"/><path class="cls-13" d="M606.82,1229.8s10.48-36.49,11.85-64.39c0,0-54.49-13.5-107,0,0,0,.16,34.41,13.91,64.33Z"/><path class="cls-14" d="M625.85,1249s-6.77-11-15.56-17.16c0,0,6.8-13.27,11.46-45.85l-4.76-3.78s-24.55,29.36-29.74,36.9c-11.28,3.09-46.32,5.43-57.92,4.39-9-10-16.46-42-16.46-42l-4.29,3.4s4.44,31.71,12.44,48.38c0,0-16.09,13.09-18.36,15.14C502.66,1248.42,564,1246.85,625.85,1249Z"/><polygon class="cls-15" points="618.67 1165.41 604.73 1173.31 615.92 1164.79 618.67 1165.41"/><polygon class="cls-16" points="511.7 1165.41 518.84 1169.8 511.82 1169.05 511.7 1165.41"/><polygon class="cls-17" points="502.66 1248.42 511.7 1260.14 501.74 1251.86 502.66 1248.42"/><polygon class="cls-18" points="625.85 1249.04 619.58 1254.28 626.14 1251.66 625.85 1249.04"/></g></g></svg>