<svg xmlns="http://www.w3.org/2000/svg" viewBox="0 0 969.68 485.79"><defs><style>.cls-1,.cls-3,.cls-5{fill:#1b262b;}.cls-2,.cls-4{fill:#eae9da;}.cls-2{stroke:#1b262b;stroke-width:3px;}.cls-2,.cls-3,.cls-5{stroke-linecap:round;stroke-miterlimit:10;}.cls-3,.cls-5{stroke:#eae9da;stroke-width:5px;}.cls-5{fill-rule:evenodd;}.cls-6{opacity:0.05;}</style></defs><title>details-smAsset 10</title><g id="Layer_2" data-name="Layer 2"><g id="details-sm"><polygon class="cls-1" points="734.69 485.79 734.69 485.53 506.12 485.53 734.69 485.79"/><path class="cls-2" d="M736.48,158.94l0-19.84a2.41,2.41,0,0,0-1.41-2.19l0,24.22A2.42,2.42,0,0,0,736.48,158.94Z"/><path class="cls-2" d="M736.43,198.39l0-19.83a2.44,2.44,0,0,0-1.42-2.2l0,24.22A2.4,2.4,0,0,0,736.43,198.39Z"/><path class="cls-2" d="M736.39,237.85l0-19.83a2.42,2.42,0,0,0-1.41-2.2L735,240A2.41,2.41,0,0,0,736.39,237.85Z"/><path class="cls-2" d="M736.57,80l0-19.84A2.41,2.41,0,0,0,735.18,58l0,24.22A2.42,2.42,0,0,0,736.57,80Z"/><path class="cls-2" d="M736.62,40.56l0-19.83a2.42,2.42,0,0,0-1.41-2.2l0,24.22A2.44,2.44,0,0,0,736.62,40.56Z"/><path class="cls-2" d="M736.53,119.48l0-19.84a2.41,2.41,0,0,0-1.41-2.19l0,24.22A2.44,2.44,0,0,0,736.53,119.48Z"/><path class="cls-2" d="M736.34,277.31l0-19.84a2.42,2.42,0,0,0-1.42-2.19l0,19.86v4.36A2.41,2.41,0,0,0,736.34,277.31Z"/><path class="cls-2" d="M736.16,435.14l0-19.83a2.4,2.4,0,0,0-1.41-2.2l0,24.22A2.41,2.41,0,0,0,736.16,435.14Z"/><path class="cls-2" d="M736.3,316.77l0-19.84a2.41,2.41,0,0,0-1.41-2.19l0,24.22A2.42,2.42,0,0,0,736.3,316.77Z"/><path class="cls-2" d="M736.12,474.6l0-19.84a2.41,2.41,0,0,0-1.41-2.19l0,24.22A2.44,2.44,0,0,0,736.12,474.6Z"/><path class="cls-2" d="M736.25,356.23l0-19.84a2.42,2.42,0,0,0-1.42-2.19l0,24.22A2.41,2.41,0,0,0,736.25,356.23Z"/><path class="cls-2" d="M736.21,395.68l0-19.83a2.43,2.43,0,0,0-1.41-2.2l0,24.22A2.41,2.41,0,0,0,736.21,395.68Z"/><path class="cls-1" d="M732.07,485v-8.66a2.32,2.32,0,0,0,2.62.45l0-24.22a2.39,2.39,0,0,0-1-.22,2.42,2.42,0,0,0-1.64.66l0-16.13a2.36,2.36,0,0,0,1.64.67,2.31,2.31,0,0,0,1-.22l0-24.22a2.32,2.32,0,0,0-1-.22,2.36,2.36,0,0,0-1.63.67l0-16.14a2.32,2.32,0,0,0,2.62.45l0-24.22a2.51,2.51,0,0,0-1-.22,2.38,2.38,0,0,0-1.64.67l0-16.13a2.46,2.46,0,0,0,1.64.67,2.55,2.55,0,0,0,1-.22l0-24.22a2.31,2.31,0,0,0-1-.23,2.36,2.36,0,0,0-1.64.67l0-16.13a2.36,2.36,0,0,0,1.63.67,2.32,2.32,0,0,0,1-.22l0-24.22a2.35,2.35,0,0,0-1-.22,2.39,2.39,0,0,0-1.64.66l0-16.13a2.34,2.34,0,0,0,2.63.45v-4.36l0-19.86a2.31,2.31,0,0,0-1-.22,2.4,2.4,0,0,0-1.64.66l0-16.13a2.36,2.36,0,0,0,1.63.67,2.32,2.32,0,0,0,1-.22l0-24.22a2.32,2.32,0,0,0-2.62.45V200.13a2.34,2.34,0,0,0,2.63.45l0-24.22a2.31,2.31,0,0,0-1-.22,2.36,2.36,0,0,0-1.64.67l0-16.13a2.4,2.4,0,0,0,1.63.67,2.32,2.32,0,0,0,1-.22l0-24.22a2.32,2.32,0,0,0-1-.23,2.36,2.36,0,0,0-1.63.67V121.22a2.4,2.4,0,0,0,1.64.67,2.35,2.35,0,0,0,1-.22l0-24.22a2.36,2.36,0,0,0-2.63.44l0-16.13a2.36,2.36,0,0,0,1.64.67,2.31,2.31,0,0,0,1-.22l0-24.22a2.32,2.32,0,0,0-1-.22,2.4,2.4,0,0,0-1.63.66l0-16.13a2.32,2.32,0,0,0,2.62.45l0-24.22a2.34,2.34,0,0,0-2.63.45l0-16.14a2.36,2.36,0,0,0,1.64.67,2.46,2.46,0,0,0,1-.21V1.14L65.28.37A66.75,66.75,0,0,1,0,67V115a19.35,19.35,0,0,1,17.74,19.31A19.37,19.37,0,0,1,0,153.53V168.6a19.37,19.37,0,0,1,17.68,19.31A19.36,19.36,0,0,1,0,207.17v15.09a19.37,19.37,0,0,1,17.62,19.3A19.39,19.39,0,0,1,0,260.82v15.09a19.36,19.36,0,0,1,17.55,19.3A19.35,19.35,0,0,1,0,314.46v15.11a19.35,19.35,0,0,1,17.49,19.29A19.36,19.36,0,0,1,0,368.11v50.12A66.74,66.74,0,0,1,64.72,485l441.4.51H734.69V485ZM122.59,457.47A80.82,80.82,0,0,1,42.1,376.78l.3-262.17a80.83,80.83,0,0,1,80.68-80.5l510.15.59a80.82,80.82,0,0,1,80.5,80.68l-.3,262.18a80.83,80.83,0,0,1-80.69,80.49Z"/><path class="cls-3" d="M713.55,378.7l.3-262.17a80.82,80.82,0,0,0-80.49-80.69l-510.15-.58a80.8,80.8,0,0,0-80.68,80.49l-.31,262.18a80.84,80.84,0,0,0,80.5,80.69l510.14.58a80.83,80.83,0,0,0,80.69-80.5Z"/><path class="cls-4" d="M745.65,482.75l-10.86-.55v-2.81a5.34,5.34,0,0,0,1-.33c1.57-.71,2.41-2.59,2.78-3.64l.14-.4v-20.3a4.82,4.82,0,0,0-2.82-4.38,4.55,4.55,0,0,0-1.06-.35V439.9a5.5,5.5,0,0,0,1-.34,4.83,4.83,0,0,0,2.81-4.35l0-19.95a4.83,4.83,0,0,0-2.82-4.38,4.55,4.55,0,0,0-1.06-.35V400.44a4.29,4.29,0,0,0,1-.34,4.83,4.83,0,0,0,2.82-4.35l0-19.95a4.83,4.83,0,0,0-2.82-4.38,4.55,4.55,0,0,0-1.06-.35V361a4.29,4.29,0,0,0,1-.34,4.83,4.83,0,0,0,2.82-4.35l0-19.94a4.85,4.85,0,0,0-2.81-4.39,5.35,5.35,0,0,0-1.07-.35V321.52a4.37,4.37,0,0,0,1-.34,4.81,4.81,0,0,0,2.81-4.35l0-19.94a4.84,4.84,0,0,0-2.82-4.39,5,5,0,0,0-1.06-.34V282.07a5.74,5.74,0,0,0,1-.34,4.82,4.82,0,0,0,2.81-4.36l0-19.94a4.82,4.82,0,0,0-2.82-4.38,4.55,4.55,0,0,0-1.06-.35V242.61a5.06,5.06,0,0,0,1-.34,4.84,4.84,0,0,0,2.81-4.36l0-19.94a4.82,4.82,0,0,0-2.82-4.38,4.55,4.55,0,0,0-1.06-.35V203.15a5.06,5.06,0,0,0,1-.34,4.83,4.83,0,0,0,2.81-4.35l0-20a4.83,4.83,0,0,0-2.82-4.38,4.55,4.55,0,0,0-1.06-.35V163.69a4.37,4.37,0,0,0,1-.34,4.81,4.81,0,0,0,2.81-4.35l0-20.06,0-.16c-.13-1-.62-3.28-2.51-4.15a5.59,5.59,0,0,0-.78-.28V124.23a4.94,4.94,0,0,0,1-.33,4.81,4.81,0,0,0,2.81-4.36l0-19.94a4.85,4.85,0,0,0-2.81-4.39,5.31,5.31,0,0,0-1.07-.34V84.78a5.5,5.5,0,0,0,1-.34,4.82,4.82,0,0,0,2.81-4.36l0-19.94a4.82,4.82,0,0,0-2.81-4.38,4.62,4.62,0,0,0-1.07-.35V45.32a4.82,4.82,0,0,0,3.85-4.7l0-19.94a4.83,4.83,0,0,0-2.81-4.38,4.78,4.78,0,0,0-1.07-.35V5.89a4.53,4.53,0,0,0,.94-.32A5,5,0,0,0,739,2.5h7.17l155.28.55C906.1,13,933,67.18,967.18,69.77v43.08a21.92,21.92,0,0,0-19.42,21.69c0,10.5,14.42,18.52,19.42,21v11.75c-5,2.45-19.47,10.43-19.48,20.92s14,18.49,18.92,21v11.79c-4.89,2.46-19,10.43-19,20.9s14.51,18.52,19.54,21v11.74c-5,2.45-19.59,10.43-19.6,20.93s14.13,18.5,19,21v11.78c-4.92,2.46-19.09,10.44-19.11,20.91a21.81,21.81,0,0,0,19.11,21.74v45.19A69.32,69.32,0,0,0,900,482.75Z"/><path class="cls-1" d="M746.13,5l153.72.54C906,18.34,931.68,67.35,964.68,72v38.71a24.42,24.42,0,0,0-19.42,23.82c0,11,13.2,19.23,19.42,22.5v8.7c-6.24,3.26-19.47,11.47-19.48,22.45s12.84,19.18,18.92,22.47v8.76c-6.09,3.28-19,11.48-19,22.42s13.28,19.24,19.54,22.51V273c-6.28,3.26-19.59,11.47-19.6,22.46s12.93,19.19,19,22.48v8.74C958,330,945,338.19,945,349.14A24.35,24.35,0,0,0,964.12,373v40.7a71.81,71.81,0,0,0-66.47,66.55H745.72l-7-.35a10.22,10.22,0,0,0,2.13-3.66l.28-.8V454.72a7.36,7.36,0,0,0-3.88-6.46v-6.64a7.32,7.32,0,0,0,3.85-6.41l0-19.94a7.34,7.34,0,0,0-3.88-6.47v-6.64a7.32,7.32,0,0,0,3.85-6.41l0-19.94a7.36,7.36,0,0,0-3.88-6.47v-6.63a7.35,7.35,0,0,0,3.85-6.42l0-19.94a7.33,7.33,0,0,0-3.88-6.46v-6.64a7.33,7.33,0,0,0,3.85-6.42l0-19.94a7.34,7.34,0,0,0-3.88-6.46v-6.64a7.33,7.33,0,0,0,3.85-6.42l0-19.93a7.34,7.34,0,0,0-3.88-6.47v-6.64a7.32,7.32,0,0,0,3.85-6.41l0-19.95a7.36,7.36,0,0,0-3.88-6.46v-6.64a7.32,7.32,0,0,0,3.85-6.41l0-19.94a7.36,7.36,0,0,0-3.88-6.47v-6.63a7.33,7.33,0,0,0,3.85-6.42l0-19.89v-.33l0-.33c-.17-1.26-.81-4.19-3.27-5.73V126a7.33,7.33,0,0,0,3.84-6.42l0-19.94a7.34,7.34,0,0,0-3.88-6.46V86.5a7.32,7.32,0,0,0,3.85-6.41l0-20a7.36,7.36,0,0,0-3.88-6.46V47a7.3,7.3,0,0,0,3.85-6.41l0-20a7.36,7.36,0,0,0-3.88-6.46V7.58A7.41,7.41,0,0,0,740.56,5h5.57m0-5h-9.44V1.1a2.54,2.54,0,0,1-1.47,2.2,2.46,2.46,0,0,1-1,.21h0a2.79,2.79,0,0,1-1.41-.67l0,16.16a2.28,2.28,0,0,1,1.57-.64h0a2.33,2.33,0,0,1,2.31,2.32l0,19.94a2.29,2.29,0,0,1-1.35,2.08,2.12,2.12,0,0,1-.94.21,2.28,2.28,0,0,1-1.55-.63l0,16.18a2.28,2.28,0,0,1,1.57-.65h0a2.35,2.35,0,0,1,2.31,2.33l0,19.94a2.3,2.3,0,0,1-1.35,2.08,2.27,2.27,0,0,1-.94.21h0a2.25,2.25,0,0,1-1.55-.64l0,16.18a2.28,2.28,0,0,1,1.57-.64h0a2.17,2.17,0,0,1,1,.22,2.31,2.31,0,0,1,1.36,2.11l0,19.94a2.3,2.3,0,0,1-1.35,2.08,2.27,2.27,0,0,1-.94.21,2.25,2.25,0,0,1-1.55-.64v16.16a2.12,2.12,0,0,1,1.25-.67h0a2.32,2.32,0,0,1,1,.23c.83.38,1.07,2.19,1.07,2.19l0,19.89a2.3,2.3,0,0,1-1.35,2.09,2.27,2.27,0,0,1-.94.21h0a2.27,2.27,0,0,1-1.56-.64v16.18a2.28,2.28,0,0,1,1.57-.64h0a2.33,2.33,0,0,1,2.31,2.32l0,19.94a2.27,2.27,0,0,1-3.85,1.66v16.18a2.28,2.28,0,0,1,1.57-.64h0a2.33,2.33,0,0,1,2.31,2.32l0,19.94a2.29,2.29,0,0,1-1.35,2.08,2.12,2.12,0,0,1-.94.21h0a2.31,2.31,0,0,1-1.56-.63v16.18a2.24,2.24,0,0,1,1.57-.65h0a2.17,2.17,0,0,1,.95.22,2.31,2.31,0,0,1,1.36,2.11l0,19.94a2.3,2.3,0,0,1-1.35,2.08,2.22,2.22,0,0,1-2.5-.43V295.2a2.28,2.28,0,0,1,1.57-.64h0a2.17,2.17,0,0,1,.95.22,2.31,2.31,0,0,1,1.36,2.11l0,19.94a2.3,2.3,0,0,1-1.35,2.08,2.22,2.22,0,0,1-2.5-.43v16.18a2.28,2.28,0,0,1,1.57-.64h0a2.33,2.33,0,0,1,2.31,2.32l0,20a2.3,2.3,0,0,1-1.35,2.08,2.27,2.27,0,0,1-.94.21h0a2.27,2.27,0,0,1-1.56-.64v16.18a2.28,2.28,0,0,1,1.57-.64h0a2.33,2.33,0,0,1,2.31,2.32l0,19.94a2.3,2.3,0,0,1-1.35,2.09,2.26,2.26,0,0,1-.94.2h0a2.26,2.26,0,0,1-1.56-.63v16.18a2.28,2.28,0,0,1,1.57-.64h0a2.33,2.33,0,0,1,2.31,2.32l0,19.94a2.31,2.31,0,0,1-2.29,2.29h0a2.31,2.31,0,0,1-1.56-.63V453a2.24,2.24,0,0,1,1.57-.65h0a2.35,2.35,0,0,1,2.31,2.33V474.6s-.63,1.81-1.46,2.19a2.35,2.35,0,0,1-1,.22h0a1.58,1.58,0,0,1-1.42-.67v8.91l2.4-.55,10.9.55H902.47A66.72,66.72,0,0,1,969,418.53h.08v-50A19.32,19.32,0,0,1,950,349.15c0-10.7,19.11-19.34,19.11-19.34V314.88s-19.06-8.69-19-19.38,19.6-19.34,19.6-19.34V261.23s-19.55-8.69-19.54-19.38,19-19.34,19-19.34V207.58s-18.93-8.69-18.92-19.38,19.48-19.34,19.48-19.34V153.93s-19.43-8.69-19.42-19.38a19.37,19.37,0,0,1,19.39-19.34h0V67.37C932.84,67.33,903,.55,903,.55L746.15,0Z"/><path class="cls-5" d="M916.13,295H756.21v12.65H916.13Z"/><path class="cls-5" d="M916.13,257.07H756.21v12.65H916.13Z"/><path class="cls-5" d="M916.13,212.8H756.21v12.65H916.13Z"/><path class="cls-5" d="M916.13,80H756.21v9.61H916.13Z"/><path class="cls-5" d="M916.13,342.57h-160v6.33h160Z"/><path class="cls-5" d="M916.13,203.44H756.21v6.33H916.13Z"/><path class="cls-5" d="M916.13,238.1H756.21v6.32H916.13Z"/><path class="cls-5" d="M916.13,228.74H756.21v6.32H916.13Z"/><path class="cls-5" d="M916.13,162.21H756.21v6.33H916.13Z"/><path class="cls-5" d="M916.13,108.58H756.21v6.33H916.13Z"/><path class="cls-5" d="M916.13,99H756.21v6.32H916.13Z"/><path class="cls-5" d="M756.08,64.31v6.33h160V64.31Z"/><path class="cls-5" d="M916.13,326.64H756.21v3.28H916.13Z"/><path class="cls-5" d="M916.13,193.83H756.21v3.28H916.13Z"/><path class="cls-5" d="M916.13,187.51H756.21v3.29H916.13Z"/><path class="cls-5" d="M916.13,276H756.21v3.29H916.13Z"/><path class="cls-5" d="M916.13,250.75H756.21V254H916.13Z"/><path class="cls-5" d="M916.13,136.91H756.21v3.29H916.13Z"/><path class="cls-5" d="M916.13,124.27H756.21v3.29H916.13Z"/><path class="cls-5" d="M916.13,73.67H756.21V77H916.13Z"/><path class="cls-5" d="M916.13,336.24H756.21v3H916.13Z"/><path class="cls-5" d="M916.13,152.85H756.21v3H916.13Z"/><path class="cls-5" d="M916.13,311H756.21v3H916.13Z"/><path class="cls-5" d="M916.13,285.66H756.21v3H916.13Z"/><path class="cls-5" d="M916.13,171.82H756.21v3H916.13Z"/><g class="cls-6"><path class="cls-4" d="M131.49,286.5v26.81a63.15,63.15,0,0,1-14.63,1.31q-35.16,0-35.16-34.93V224.27H67v-24H81.7V172.65h31.35V200.3h18.44v24H113.05v52.22q0,11.1,11.36,11.1Z"/><path class="cls-4" d="M179.37,179.89q-5.24,5.22-13.49,5.22t-13.49-5.22a18,18,0,0,1-5.22-13.27,18.34,18.34,0,0,1,5.22-13.38q5.22-5.34,13.49-5.33a18,18,0,0,1,13.49,5.33,18.34,18.34,0,0,1,5.22,13.38A18,18,0,0,1,179.37,179.89ZM149.92,314.62V200.3h31.35V314.62Z"/><path class="cls-4" d="M217.49,300.31q-16.69-17.58-16.68-43.77t16.68-43.77q16.66-17.58,42.2-17.58,25.07,0,39.51,14.11t16.46,31.57H283a21.59,21.59,0,0,0-8.28-12.54,24.53,24.53,0,0,0-15.23-4.93q-12.54,0-19.7,9.07t-7.16,24.07q0,15,7.16,24.07t19.7,9.07a24.53,24.53,0,0,0,15.23-4.93A21.56,21.56,0,0,0,283,272.21h32.69q-2,17.46-16.46,31.57t-39.51,14.11Q234.16,317.89,217.49,300.31Z"/><path class="cls-4" d="M406,200.3h39.3L402,249l46.36,65.67H411.26l-30-45.16L363.8,289.09v25.53H332.46V150.52H363.8V252.73Z"/><path class="cls-4" d="M561.19,266.68H478.52c1,7,3.91,13,8.7,17.1s11.1,6.2,18.93,6.2a28.17,28.17,0,0,0,13.38-3.16,18.72,18.72,0,0,0,8.59-9.08h31.11a52,52,0,0,1-19.69,28q-14.68,10.77-34.26,10.77-25.25,0-41.34-16.75t-16.1-43.08q0-25.45,16.1-42.43t41.12-17q25,0,40.79,16.87t15.78,42.53ZM504.84,223q-10.44,0-17.19,5.76T479,244.56h51.78a26.13,26.13,0,0,0-8.48-15.67Q515.5,223,504.84,223Z"/><path class="cls-4" d="M636.68,286.5v26.81a63,63,0,0,1-14.63,1.31q-35.14,0-35.15-34.93V224.27H572.15v-24H586.9V172.65h31.34V200.3h18.44v24H618.24v52.22q0,11.1,11.37,11.1Z"/><path class="cls-4" d="M684.12,179.89q-5.24,5.22-13.49,5.22t-13.49-5.22a18,18,0,0,1-5.22-13.27,18.34,18.34,0,0,1,5.22-13.38q5.22-5.34,13.49-5.33a18,18,0,0,1,13.49,5.33,18.34,18.34,0,0,1,5.22,13.38A18,18,0,0,1,684.12,179.89Zm-29,134.73V200.3h31.35V314.62Z"/></g></g></g></svg>