<svg xmlns="http://www.w3.org/2000/svg" viewBox="0 0 1025 1025"><defs><style>.cls-1,.cls-3{fill:#eae9da;}.cls-2,.cls-4,.cls-5{fill:#1b262b;}.cls-3{stroke:#1b262b;stroke-width:3px;}.cls-3,.cls-4,.cls-5{stroke-linecap:round;stroke-miterlimit:10;}.cls-4,.cls-5{stroke:#eae9da;stroke-width:5px;}.cls-5{fill-rule:evenodd;}</style></defs><title>splashscreen_imageAsset 5</title><g id="Layer_2" data-name="Layer 2"><g id="Icon"><rect class="cls-1" width="1025" height="1025"/><g id="Icon-Group"><polygon class="cls-2" points="674.89 766.48 674.94 766.25 468.76 725.75 674.89 766.48"/><path class="cls-3" d="M734.42,472,738,454.07a2.23,2.23,0,0,0-.89-2.23l-4.31,21.85A2.23,2.23,0,0,0,734.42,472Z"/><path class="cls-3" d="M727.39,507.55l3.54-17.89a2.23,2.23,0,0,0-.89-2.23l-4.32,21.84A2.21,2.21,0,0,0,727.39,507.55Z"/><path class="cls-3" d="M720.36,543.13l3.53-17.89A2.21,2.21,0,0,0,723,523l-4.32,21.85A2.24,2.24,0,0,0,720.36,543.13Z"/><path class="cls-3" d="M748.49,400.79,752,382.9a2.23,2.23,0,0,0-.88-2.23l-4.32,21.85A2.24,2.24,0,0,0,748.49,400.79Z"/><path class="cls-3" d="M755.52,365.21l3.53-17.89a2.21,2.21,0,0,0-.88-2.23l-4.32,21.84A2.24,2.24,0,0,0,755.52,365.21Z"/><path class="cls-3" d="M741.45,436.38,745,418.49a2.21,2.21,0,0,0-.89-2.23l-4.31,21.84A2.23,2.23,0,0,0,741.45,436.38Z"/><path class="cls-3" d="M713.33,578.72l3.53-17.89a2.21,2.21,0,0,0-.89-2.23l-3.54,17.91-.52,2.66-.25,1.27A2.24,2.24,0,0,0,713.33,578.72Z"/><path class="cls-3" d="M685.2,721.06l3.53-17.89a2.23,2.23,0,0,0-.88-2.23l-4.32,21.84A2.24,2.24,0,0,0,685.2,721.06Z"/><path class="cls-3" d="M706.29,614.3l3.54-17.89a2.23,2.23,0,0,0-.89-2.23L704.63,616A2.23,2.23,0,0,0,706.29,614.3Z"/><path class="cls-3" d="M678.16,756.64l3.54-17.89a2.21,2.21,0,0,0-.89-2.23l-4.31,21.84A2.2,2.2,0,0,0,678.16,756.64Z"/><path class="cls-3" d="M699.26,649.89,702.8,632a2.23,2.23,0,0,0-.89-2.23l-4.32,21.84A2.21,2.21,0,0,0,699.26,649.89Z"/><path class="cls-3" d="M692.23,685.47l3.53-17.89a2.21,2.21,0,0,0-.88-2.23l-4.32,21.85A2.24,2.24,0,0,0,692.23,685.47Z"/><path class="cls-2" d="M672.67,765.31l1.54-7.82a2.2,2.2,0,0,0,1.36.9,2.08,2.08,0,0,0,.93,0l4.31-21.84a2,2,0,0,0-.85-.37,2.14,2.14,0,0,0-1.59.31l2.87-14.55a2.21,2.21,0,0,0,1.36.89,2.08,2.08,0,0,0,.93,0l4.32-21.84a2.31,2.31,0,0,0-.86-.38,2.19,2.19,0,0,0-1.59.31l2.88-14.55a2.13,2.13,0,0,0,1.35.9,2.24,2.24,0,0,0,.93,0l4.32-21.85A2.1,2.1,0,0,0,694,665a2.17,2.17,0,0,0-1.6.31l2.88-14.55a2.16,2.16,0,0,0,1.35.89,2.08,2.08,0,0,0,.93,0l4.32-21.84a2.26,2.26,0,0,0-.85-.38,2.23,2.23,0,0,0-1.6.31l2.88-14.55a2.16,2.16,0,0,0,1.36.9,2.24,2.24,0,0,0,.93,0l4.31-21.85a2.1,2.1,0,0,0-.85-.37,2.14,2.14,0,0,0-1.59.31l2.87-14.55a2.21,2.21,0,0,0,1.36.89,2.08,2.08,0,0,0,.93,0l.25-1.27.52-2.66L716,558.6a2.12,2.12,0,0,0-2.44-.07L716.4,544a2.18,2.18,0,0,0,1.36.9,2.24,2.24,0,0,0,.93,0L723,523a2.16,2.16,0,0,0-2.45-.06l2.88-14.55a2.16,2.16,0,0,0,1.35.89,2.08,2.08,0,0,0,.93,0L730,487.43a2.26,2.26,0,0,0-.85-.38,2.22,2.22,0,0,0-1.6.31l2.88-14.55a2.16,2.16,0,0,0,1.36.9,2.24,2.24,0,0,0,.93,0l4.31-21.85a2.1,2.1,0,0,0-.85-.37,2.14,2.14,0,0,0-1.59.31l2.87-14.55a2.21,2.21,0,0,0,1.36.89,2.08,2.08,0,0,0,.93,0l4.31-21.84a2.12,2.12,0,0,0-2.44-.07l2.87-14.55a2.18,2.18,0,0,0,1.36.9,2.24,2.24,0,0,0,.93,0l4.32-21.85a2.17,2.17,0,0,0-2.45-.06l2.88-14.55a2.16,2.16,0,0,0,1.35.89,2.08,2.08,0,0,0,.93,0l4.32-21.84a2.26,2.26,0,0,0-.85-.38,2.22,2.22,0,0,0-1.6.31l2.88-14.55a2.13,2.13,0,0,0,1.35.9,2.23,2.23,0,0,0,.93,0l.39-2L157.06,210a61.36,61.36,0,0,1-70.69,48.56l-8.49,43.23A17.8,17.8,0,0,1,71,336.59l-2.67,13.6A17.8,17.8,0,0,1,61.53,385l-2.67,13.61A17.79,17.79,0,0,1,52,433.37L49.36,447a17.8,17.8,0,0,1-6.84,34.77l-2.67,13.63A17.8,17.8,0,0,1,33,530.15l-8.88,45.21a61.36,61.36,0,0,1,46.55,71.72l398.07,78.67,206.18,40.5.09-.48ZM127.77,632.48a74.29,74.29,0,0,1-58.31-87L116.18,309a74.29,74.29,0,0,1,87-58.31L663.3,341.6a74.29,74.29,0,0,1,58.32,87L674.89,665.08a74.32,74.32,0,0,1-87,58.32Z"/><path class="cls-4" d="M674.89,665.08l46.73-236.44a74.29,74.29,0,0,0-58.32-87L203.22,250.68a74.29,74.29,0,0,0-87,58.31L69.46,545.44a74.29,74.29,0,0,0,58.31,87L587.84,723.4a74.32,74.32,0,0,0,87-58.32Z"/><path class="cls-1" d="M685.37,765.49l-9.51-2.38.43-2.19a5.26,5.26,0,0,0,.78-.12,5.93,5.93,0,0,0,3.29-2.89l.22-.37,3.6-18.35a4.64,4.64,0,0,0-1.84-4.65,5.24,5.24,0,0,0-.79-.46l1.73-8.78a4.45,4.45,0,0,0,.89-.13,4.62,4.62,0,0,0,3.45-3.58l3.55-18a4.63,4.63,0,0,0-1.84-4.65,4.17,4.17,0,0,0-.79-.46l1.74-8.78a5.34,5.34,0,0,0,.88-.13,4.63,4.63,0,0,0,3.45-3.58l3.55-18a4.63,4.63,0,0,0-1.84-4.65,4.17,4.17,0,0,0-.79-.46l1.74-8.79a4.34,4.34,0,0,0,.87-.12,4.62,4.62,0,0,0,3.46-3.59l3.55-18a4.65,4.65,0,0,0-1.84-4.66,4.79,4.79,0,0,0-.79-.46l1.74-8.78a4.34,4.34,0,0,0,.87-.12,4.64,4.64,0,0,0,3.46-3.59l3.55-18a4.65,4.65,0,0,0-1.84-4.66,4.79,4.79,0,0,0-.79-.46l1.74-8.78a4.45,4.45,0,0,0,.88-.13,4.62,4.62,0,0,0,3.45-3.58l3.55-18a4.63,4.63,0,0,0-1.84-4.65,4.17,4.17,0,0,0-.79-.46l1.74-8.79a4.43,4.43,0,0,0,.88-.12,4.63,4.63,0,0,0,3.45-3.58l3.56-18a4.67,4.67,0,0,0-1.85-4.66,5.14,5.14,0,0,0-.78-.46l1.73-8.78a4.34,4.34,0,0,0,.88-.12,4.61,4.61,0,0,0,3.45-3.59l3.56-18a4.67,4.67,0,0,0-1.84-4.66,5.78,5.78,0,0,0-.79-.46l1.73-8.78a5.18,5.18,0,0,0,.88-.12,4.64,4.64,0,0,0,3.46-3.59l3.57-18.11v-.16c.06-.92,0-3.18-1.6-4.36a6.42,6.42,0,0,0-.56-.34l1.74-8.82a4.34,4.34,0,0,0,.87-.12A4.62,4.62,0,0,0,744,437l3.56-18a4.66,4.66,0,0,0-1.85-4.66,5.14,5.14,0,0,0-.78-.46l1.73-8.78a4.34,4.34,0,0,0,.88-.12,4.61,4.61,0,0,0,3.45-3.59l3.56-18a4.66,4.66,0,0,0-1.84-4.66,5.24,5.24,0,0,0-.79-.46l1.73-8.78a5.19,5.19,0,0,0,.88-.13,4.63,4.63,0,0,0,3.46-3.58l3.55-18a4.65,4.65,0,0,0-1.84-4.66,4.45,4.45,0,0,0-.79-.45l1.73-8.76a5.39,5.39,0,0,0,.79-.12,4.81,4.81,0,0,0,3-2.26l6.32,1.24,139.85,28c2.54,10.13,17.2,63.26,47.41,71.81l-7.56,38.5c-.49,0-1-.06-1.48-.06a20.35,20.35,0,0,0-19.91,16.36c-1.87,9.51,9.6,19.28,13.78,22.48l-2,10.36c-5.09,1.37-19.42,6-21.3,15.55s9.26,19.18,13.33,22.37l-2,10.39c-5,1.41-19,6.15-20.85,15.62s9.68,19.3,13.88,22.51l-2,10.35c-5.12,1.36-19.53,6-21.41,15.53s9.34,19.2,13.44,22.4l-2,10.38c-5,1.39-19.09,6.12-21,15.6a20.25,20.25,0,0,0,13.35,23.17l-7.94,40.4a63.07,63.07,0,0,0-9.88-.78,64,64,0,0,0-62,49.12Z"/><path class="cls-2" d="M765.52,334.26l4.8.95,138.32,27.67c3.42,13,17.84,61.05,46.56,71.37l-6.72,34.25a22.84,22.84,0,0,0-21.8,18.37c-1.12,5.67,1.43,11.88,7.57,18.46a63.38,63.38,0,0,0,5.91,5.5l-1.45,7.4a62.07,62.07,0,0,0-7.55,2.83c-8.2,3.75-12.92,8.53-14,14.19-2,10,8,19.68,13,23.86l-1.46,7.43c-6.24,2-19.18,7.15-21.14,17.1-1.12,5.67,1.45,11.89,7.64,18.48a61,61,0,0,0,5.95,5.51L919.7,615a62.77,62.77,0,0,0-7.6,2.82c-8.24,3.75-13,8.52-14.1,14.19-2,10,8.09,19.7,13.15,23.89l-1.46,7.41c-6.27,1.95-19.29,7.13-21.26,17.09a22.8,22.8,0,0,0,13,25.22l-7.07,36a67.48,67.48,0,0,0-7.89-.47,66.5,66.5,0,0,0-63.84,48.71L685.91,763.05l-5.42-1.36a10.39,10.39,0,0,0,2-2.52l.43-.73.16-.83,3.52-17.93a7.13,7.13,0,0,0-2.31-6.75l1.1-5.52a7.12,7.12,0,0,0,4.65-5.34l3.55-18a7.15,7.15,0,0,0-2.3-6.75l1.09-5.52a7.12,7.12,0,0,0,4.65-5.34l3.55-18a7.14,7.14,0,0,0-2.3-6.75l1.09-5.53a7.12,7.12,0,0,0,4.65-5.33l3.55-18a7.15,7.15,0,0,0-2.3-6.75l1.09-5.52a7.12,7.12,0,0,0,4.65-5.34l3.56-18a7.18,7.18,0,0,0-2.31-6.75l1.09-5.52A7.12,7.12,0,0,0,718,579.7l3.56-18a7.16,7.16,0,0,0-2.31-6.75l1.09-5.52a7.15,7.15,0,0,0,4.65-5.34l3.56-18a7.18,7.18,0,0,0-2.31-6.75l1.09-5.52a7.13,7.13,0,0,0,4.66-5.33l3.55-18a7.16,7.16,0,0,0-2.31-6.75l1.09-5.52a7.15,7.15,0,0,0,4.66-5.34L742.55,455l.07-.32,0-.33a7.87,7.87,0,0,0-1.9-5.91l1.11-5.66a7.12,7.12,0,0,0,4.65-5.33l3.55-18a7.16,7.16,0,0,0-2.31-6.75l1.09-5.52a7.13,7.13,0,0,0,4.66-5.34l3.55-18a7.15,7.15,0,0,0-2.31-6.74l1.1-5.52a7.14,7.14,0,0,0,4.65-5.34l3.55-18a7.14,7.14,0,0,0-2.3-6.75l1.09-5.53a7.3,7.3,0,0,0,2.7-1.72m-2.73-5.63-.19,1a2.36,2.36,0,0,1-1.72,1.72,2.18,2.18,0,0,1-.52.06,2,2,0,0,1-.41,0,2.57,2.57,0,0,1-1.15-.86l-2.88,14.57a2.17,2.17,0,0,1,1.14-.34,2.85,2.85,0,0,1,.4,0,2.14,2.14,0,0,1,1.67,2.51l-3.56,18a2.12,2.12,0,0,1-2.08,1.7,1.72,1.72,0,0,1-.39,0,2.05,2.05,0,0,1-1.29-.85l-2.88,14.59a2.16,2.16,0,0,1,1.14-.33,1.72,1.72,0,0,1,.39,0,1.91,1.91,0,0,1,.82.36,2.14,2.14,0,0,1,.86,2.14l-3.56,18a2.12,2.12,0,0,1-1.58,1.64,2.73,2.73,0,0,1-.5.05,2.56,2.56,0,0,1-.39,0,2.11,2.11,0,0,1-1.29-.85l-2.88,14.59a2.17,2.17,0,0,1,1.14-.34,1.72,1.72,0,0,1,.39,0,2.14,2.14,0,0,1,1.67,2.5l-3.55,18A2.12,2.12,0,0,1,740,438.1a2.07,2.07,0,0,1-.5.06,1.72,1.72,0,0,1-.39,0,2.11,2.11,0,0,1-1.29-.85L735,451.85a2.19,2.19,0,0,1,1.07-.4l.18,0a2.1,2.1,0,0,1,.85.37c.68.49.58,2.17.58,2.17L734.1,472a2.12,2.12,0,0,1-2.08,1.7l-.39,0a2.11,2.11,0,0,1-1.29-.85l-2.88,14.59a2.09,2.09,0,0,1,1.14-.34,1.72,1.72,0,0,1,.39,0,2.14,2.14,0,0,1,1.67,2.5l-3.55,18a2.12,2.12,0,0,1-2.08,1.7,2.58,2.58,0,0,1-.39,0,2.11,2.11,0,0,1-1.29-.85L720.47,523a2.17,2.17,0,0,1,1.14-.34,1.72,1.72,0,0,1,.39,0,2.14,2.14,0,0,1,1.67,2.5l-3.55,18a2.12,2.12,0,0,1-1.59,1.64,2,2,0,0,1-.49.06,1.72,1.72,0,0,1-.39,0,2.11,2.11,0,0,1-1.29-.85l-2.88,14.59a2.15,2.15,0,0,1,1.14-.34,2.58,2.58,0,0,1,.39,0,2.1,2.1,0,0,1,.82.36,2.13,2.13,0,0,1,.85,2.15l-3.55,18a2.11,2.11,0,0,1-1.59,1.64,2,2,0,0,1-.49.06,1.72,1.72,0,0,1-.39,0,2.05,2.05,0,0,1-1.29-.84l-2.88,14.59a2.06,2.06,0,0,1,1.14-.34,1.72,1.72,0,0,1,.39,0,2.14,2.14,0,0,1,1.67,2.5l-3.55,18a2.13,2.13,0,0,1-1.59,1.64,2.63,2.63,0,0,1-.49.06,2.58,2.58,0,0,1-.39,0,2.08,2.08,0,0,1-1.29-.85l-2.88,14.59a2.15,2.15,0,0,1,1.14-.34,1.72,1.72,0,0,1,.39,0,2.16,2.16,0,0,1,.82.36,2.13,2.13,0,0,1,.85,2.14l-3.55,18a2.13,2.13,0,0,1-1.59,1.64,2.07,2.07,0,0,1-.5.06,1.69,1.69,0,0,1-.38,0,2.08,2.08,0,0,1-1.29-.85l-2.89,14.59a2.17,2.17,0,0,1,1.14-.34,2.71,2.71,0,0,1,.4,0,2.14,2.14,0,0,1,1.67,2.51l-3.56,18a2.12,2.12,0,0,1-2.08,1.7,1.69,1.69,0,0,1-.38,0,2,2,0,0,1-1.29-.85l-2.89,14.59a2.16,2.16,0,0,1,1.14-.33,1.87,1.87,0,0,1,.4,0,2,2,0,0,1,.82.36,2.15,2.15,0,0,1,.85,2.14l-3.56,18a2.12,2.12,0,0,1-2.08,1.7l-.39,0a2.14,2.14,0,0,1-1.29-.85l-2.88,14.59a2.17,2.17,0,0,1,1.14-.34,1.72,1.72,0,0,1,.39,0,2,2,0,0,1,.82.36,2.14,2.14,0,0,1,.86,2.14l-3.53,17.94s-.89,1.52-1.7,1.71a1.86,1.86,0,0,1-.52.07,2.71,2.71,0,0,1-.41,0,1.45,1.45,0,0,1-1.16-.86l-1.58,8,2.26-.07,9.73,2.43,141.52,27.79a61.15,61.15,0,0,1,71.94-48.37l8.86-45.1a17.76,17.76,0,0,1-13.8-20.88c1.91-9.64,20.66-14.06,20.66-14.06l2.65-13.46S901,642.63,902.9,633,924,619,924,619l2.64-13.47s-16.09-11.3-14.19-20.94S933,570.52,933,570.52l2.64-13.46S920.12,545.87,922,536.22s21-14,21-14l2.64-13.47s-16-11.28-14.07-20.92A17.8,17.8,0,0,1,949,473.49a18,18,0,0,1,3.48.34L961,430.68c-33.22-6.56-48.28-72.08-48.28-72.08L771.3,330.31l-8.51-1.68Z"/><path class="cls-5" d="M872.36,626.54,728.11,598.2l-2.24,11.41L870.12,638Z"/><path class="cls-5" d="M879.09,592.31,734.83,564l-2.24,11.4,144.25,28.34Z"/><path class="cls-5" d="M886.93,552.38,742.67,524.05l-2.24,11.4,144.26,28.34Z"/><path class="cls-5" d="M910.46,432.58,766.2,404.25l-1.7,8.67,144.26,28.34Z"/><path class="cls-5" d="M863.94,669.44,719.57,641.08l-1.12,5.71,144.37,28.35Z"/><path class="cls-5" d="M888.59,543.94,744.33,515.6l-1.12,5.71,144.26,28.33Z"/><path class="cls-5" d="M882.45,575.2,738.19,546.86l-1.12,5.71L881.33,580.9Z"/><path class="cls-5" d="M884.11,566.76,739.85,538.42l-1.12,5.71L883,572.46Z"/><path class="cls-5" d="M895.89,506.74,751.64,478.41l-1.12,5.71,144.25,28.33Z"/><path class="cls-5" d="M905.39,458.37,761.14,430,760,435.74l144.25,28.33Z"/><path class="cls-5" d="M907.1,449.7,762.84,421.36l-1.12,5.71L906,455.4Z"/><path class="cls-5" d="M768.87,390.08l-1.12,5.7,144.37,28.36,1.12-5.7Z"/><path class="cls-5" d="M866.76,655.06,722.5,626.73l-.58,3L866.18,658Z"/><path class="cls-5" d="M890.29,535.26,746,506.93l-.59,3,144.26,28.33Z"/><path class="cls-5" d="M891.41,529.56,747.16,501.23l-.59,3,144.26,28.33Z"/><path class="cls-5" d="M875.72,609.43,731.47,581.09l-.58,3,144.25,28.33Z"/><path class="cls-5" d="M880.21,586.61,736,558.27l-.58,3,144.25,28.33Z"/><path class="cls-5" d="M900.38,483.92,756.12,455.59l-.58,3,144.25,28.33Z"/><path class="cls-5" d="M902.62,472.52,758.36,444.18l-.58,3L902,475.48Z"/><path class="cls-5" d="M911.58,426.88,767.32,398.55l-.58,3L911,429.85Z"/><path class="cls-5" d="M865.06,663.73,720.8,635.4l-.54,2.74,144.26,28.33Z"/><path class="cls-5" d="M897.55,498.3,753.3,470l-.54,2.74L897,501Z"/><path class="cls-5" d="M869.54,640.91,725.28,612.58l-.53,2.74L869,643.65Z"/><path class="cls-5" d="M874,618.1,729.77,589.76l-.54,2.74,144.25,28.34Z"/><path class="cls-5" d="M894.19,515.42,749.93,487.08l-.53,2.74,144.25,28.33Z"/><polygon class="cls-2" points="773.88 814 773.88 813.75 553.09 813.75 773.88 814"/><path class="cls-3" d="M775.61,498.28l0-19.16a2.33,2.33,0,0,0-1.37-2.12l0,23.39A2.34,2.34,0,0,0,775.61,498.28Z"/><path class="cls-3" d="M775.56,536.39l0-19.16a2.32,2.32,0,0,0-1.36-2.12l0,23.4A2.33,2.33,0,0,0,775.56,536.39Z"/><path class="cls-3" d="M775.52,574.51l0-19.17a2.31,2.31,0,0,0-1.36-2.11l0,23.39A2.34,2.34,0,0,0,775.52,574.51Z"/><path class="cls-3" d="M775.69,422.05l0-19.16a2.35,2.35,0,0,0-1.37-2.12l0,23.39A2.31,2.31,0,0,0,775.69,422.05Z"/><path class="cls-3" d="M775.74,383.93l0-19.16a2.34,2.34,0,0,0-1.36-2.12l0,23.4A2.35,2.35,0,0,0,775.74,383.93Z"/><path class="cls-3" d="M775.65,460.16l0-19.16a2.34,2.34,0,0,0-1.36-2.12l0,23.4A2.35,2.35,0,0,0,775.65,460.16Z"/><path class="cls-3" d="M775.47,612.62l0-19.16a2.35,2.35,0,0,0-1.37-2.12l0,19.19v4.2A2.31,2.31,0,0,0,775.47,612.62Z"/><path class="cls-3" d="M775.3,765.08l0-19.17A2.32,2.32,0,0,0,774,743.8l0,23.39A2.34,2.34,0,0,0,775.3,765.08Z"/><path class="cls-3" d="M775.43,650.73l0-19.16a2.34,2.34,0,0,0-1.36-2.12l0,23.4A2.35,2.35,0,0,0,775.43,650.73Z"/><path class="cls-3" d="M775.26,803.19l0-19.16a2.33,2.33,0,0,0-1.37-2.12l0,23.39A2.34,2.34,0,0,0,775.26,803.19Z"/><path class="cls-3" d="M775.39,688.85l0-19.16a2.33,2.33,0,0,0-1.37-2.12L774,691A2.32,2.32,0,0,0,775.39,688.85Z"/><path class="cls-3" d="M775.34,727l0-19.16a2.32,2.32,0,0,0-1.36-2.12l0,23.4A2.33,2.33,0,0,0,775.34,727Z"/><path class="cls-2" d="M771.34,813.24v-8.37a2.33,2.33,0,0,0,1.58.65,2.25,2.25,0,0,0,1-.22l0-23.39a2.32,2.32,0,0,0-.95-.21,2.26,2.26,0,0,0-1.58.64l0-15.58a2.28,2.28,0,0,0,1.58.64,2.32,2.32,0,0,0,.95-.21l0-23.39a2.25,2.25,0,0,0-1-.22,2.28,2.28,0,0,0-1.58.65l0-15.59a2.28,2.28,0,0,0,1.58.65,2.32,2.32,0,0,0,1-.21l0-23.4a2.32,2.32,0,0,0-1-.21,2.28,2.28,0,0,0-1.58.64V690.53a2.32,2.32,0,0,0,1.58.64,2.08,2.08,0,0,0,1-.21l0-23.39a2.17,2.17,0,0,0-.95-.22,2.28,2.28,0,0,0-1.58.65l0-15.59a2.25,2.25,0,0,0,1.58.65,2.32,2.32,0,0,0,.95-.21l0-23.4a2.28,2.28,0,0,0-2.54.43l0-15.58a2.33,2.33,0,0,0,1.58.65,2.25,2.25,0,0,0,1-.22v-4.2l0-19.19a2.17,2.17,0,0,0-1-.21,2.21,2.21,0,0,0-1.58.64l0-15.58a2.28,2.28,0,0,0,1.58.64,2.32,2.32,0,0,0,.95-.21l0-23.39a2.25,2.25,0,0,0-1-.22,2.32,2.32,0,0,0-1.58.64l0-15.58a2.28,2.28,0,0,0,1.58.65,2.32,2.32,0,0,0,1-.21l0-23.4a2.32,2.32,0,0,0-1-.21,2.28,2.28,0,0,0-1.58.64V500a2.32,2.32,0,0,0,1.58.64,2.08,2.08,0,0,0,1-.21l0-23.39a2.17,2.17,0,0,0-1-.22,2.28,2.28,0,0,0-1.58.65l0-15.59a2.25,2.25,0,0,0,1.58.65,2.32,2.32,0,0,0,.95-.21l0-23.4a2.36,2.36,0,0,0-1-.21,2.32,2.32,0,0,0-1.58.64l0-15.58a2.33,2.33,0,0,0,1.58.65,2.25,2.25,0,0,0,1-.22l0-23.39a2.22,2.22,0,0,0-2.53.43l0-15.58a2.28,2.28,0,0,0,1.57.64,2.33,2.33,0,0,0,1-.21l0-23.4a2.4,2.4,0,0,0-1-.21,2.32,2.32,0,0,0-1.58.64l0-15.58a2.25,2.25,0,0,0,2.53.44v-2.09l-647.15-.74a64.47,64.47,0,0,1-63.06,64.38v46.3a18.69,18.69,0,0,1,0,37.26v14.56a18.7,18.7,0,0,1,0,37.26v14.57a18.7,18.7,0,0,1,0,37.25v14.58a18.7,18.7,0,0,1,0,37.23v14.59a18.7,18.7,0,0,1,0,37.23v48.42a64.47,64.47,0,0,1,62.52,64.51l426.36.5H773.88v-.51Zm-588.71-26.6a78.07,78.07,0,0,1-77.76-77.94l.3-253.24A78.07,78.07,0,0,1,183.1,377.7l492.77.57a78.07,78.07,0,0,1,77.76,77.93l-.29,253.25a78.1,78.1,0,0,1-77.94,77.76Z"/><path class="cls-4" d="M753.46,710.56l.29-253.25A78.07,78.07,0,0,0,676,379.38l-492.78-.57a78.07,78.07,0,0,0-77.93,77.75L105,709.81a78.07,78.07,0,0,0,77.76,77.94l492.77.57a78.08,78.08,0,0,0,77.94-77.76Z"/><path class="cls-1" d="M784.47,811l-10.41-.53v-2.57a4.48,4.48,0,0,0,.87-.3c1.54-.7,2.37-2.54,2.73-3.57l.14-.4V784a4.78,4.78,0,0,0-2.77-4.31,5.1,5.1,0,0,0-1-.32v-9.61a4.83,4.83,0,0,0,1-.32,4.75,4.75,0,0,0,2.77-4.28l0-19.27a4.77,4.77,0,0,0-2.77-4.31,4.53,4.53,0,0,0-1-.33v-9.61a4.25,4.25,0,0,0,1-.32,4.73,4.73,0,0,0,2.77-4.28l0-19.26a4.76,4.76,0,0,0-2.77-4.31,4.53,4.53,0,0,0-1-.33v-9.61a4.83,4.83,0,0,0,1-.32,4.75,4.75,0,0,0,2.77-4.28l0-19.27a4.78,4.78,0,0,0-2.77-4.31,6,6,0,0,0-1-.33v-9.6a4.83,4.83,0,0,0,1-.32,4.75,4.75,0,0,0,2.77-4.28l0-19.27a4.76,4.76,0,0,0-2.77-4.31,4.53,4.53,0,0,0-1-.33v-9.61a4.62,4.62,0,0,0,1-.32,4.73,4.73,0,0,0,2.77-4.28l0-19.26A4.78,4.78,0,0,0,775,589.1a5.1,5.1,0,0,0-1-.32v-9.61a4.83,4.83,0,0,0,1-.32,4.75,4.75,0,0,0,2.77-4.29l0-19.26A4.76,4.76,0,0,0,775,551a4.53,4.53,0,0,0-1-.33v-9.61a4.25,4.25,0,0,0,1-.32,4.73,4.73,0,0,0,2.77-4.28l0-19.26a4.78,4.78,0,0,0-2.77-4.32,5.1,5.1,0,0,0-1-.32v-9.61a4.83,4.83,0,0,0,1-.32,4.73,4.73,0,0,0,2.77-4.28l0-19.39,0-.16c-.13-.94-.62-3.21-2.47-4.07a6.77,6.77,0,0,0-.71-.26v-9.64a4.25,4.25,0,0,0,.95-.32,4.72,4.72,0,0,0,2.76-4.28l0-19.26a4.74,4.74,0,0,0-2.77-4.31,4.35,4.35,0,0,0-1-.33v-9.61a4.62,4.62,0,0,0,.95-.32,4.72,4.72,0,0,0,2.77-4.28l0-19.26a4.78,4.78,0,0,0-2.77-4.32,4.88,4.88,0,0,0-1-.32V388.6a4.62,4.62,0,0,0,.95-.32,4.75,4.75,0,0,0,2.77-4.28l0-19.27a4.75,4.75,0,0,0-2.77-4.31,4.35,4.35,0,0,0-1-.33v-9.58a4.62,4.62,0,0,0,.86-.3,4.9,4.9,0,0,0,2.63-3H785l149.93.53c4.58,9.75,30.53,61.86,63.48,64.45v41.45a21.25,21.25,0,0,0-18.75,21c0,10.15,13.87,17.9,18.75,20.31v11.24c-4.89,2.4-18.8,10.11-18.81,20.27s13.5,17.87,18.28,20.29v11.28c-4.79,2.41-18.33,10.12-18.34,20.25s14,17.91,18.87,20.31v11.24c-4.92,2.4-18.92,10.11-18.93,20.27s13.6,17.88,18.4,20.3v11.27c-4.82,2.41-18.45,10.12-18.46,20.26a21.14,21.14,0,0,0,6.16,15,20.74,20.74,0,0,0,12.3,6.08v43.49A67.05,67.05,0,0,0,933.49,811Z"/><path class="cls-2" d="M784.93,349.75l148.37.53c6.05,12.51,30.75,59.55,62.56,64.18v37.1a23.75,23.75,0,0,0-18.75,23.15c0,10.65,12.68,18.63,18.75,21.84v8.19c-6.09,3.2-18.8,11.15-18.81,21.8s12.34,18.58,18.28,21.8v8.26c-6,3.21-18.33,11.16-18.34,21.76s12.76,18.64,18.87,21.85v8.17c-6.12,3.19-18.92,11.15-18.93,21.8s12.42,18.59,18.4,21.81v8.25c-6,3.2-18.45,11.15-18.46,21.76a23.7,23.7,0,0,0,18.46,23.19v39a69.53,69.53,0,0,0-64.2,64.28H784.53l-6.36-.32a10.59,10.59,0,0,0,1.85-3.33l.28-.8V784a7.27,7.27,0,0,0-3.75-6.34v-6.21a7.27,7.27,0,0,0,3.72-6.3l0-19.26a7.27,7.27,0,0,0-3.75-6.35v-6.21a7.25,7.25,0,0,0,3.72-6.3l0-19.26a7.26,7.26,0,0,0-3.75-6.34v-6.21a7.24,7.24,0,0,0,3.71-6.3l0-19.26a7.27,7.27,0,0,0-3.75-6.35v-6.21a7.25,7.25,0,0,0,3.72-6.3l0-19.25a7.26,7.26,0,0,0-3.75-6.35V619a7.26,7.26,0,0,0,3.72-6.3l0-19.26a7.27,7.27,0,0,0-3.75-6.35v-6.2a7.24,7.24,0,0,0,3.71-6.3l0-19.27a7.28,7.28,0,0,0-3.75-6.34v-6.21a7.26,7.26,0,0,0,3.72-6.3l0-19.26a7.27,7.27,0,0,0-3.75-6.34v-6.21a7.26,7.26,0,0,0,3.72-6.3l0-19.22v-.33l0-.33a7.91,7.91,0,0,0-3.15-5.6v-6.34a7.23,7.23,0,0,0,3.71-6.3l0-19.25a7.26,7.26,0,0,0-3.75-6.35v-6.21a7.26,7.26,0,0,0,3.72-6.3l0-19.27a7.26,7.26,0,0,0-3.75-6.34v-6.21a7.24,7.24,0,0,0,3.72-6.29l0-19.27a7.26,7.26,0,0,0-3.75-6.34v-6.21a7.34,7.34,0,0,0,2.55-2.43h5.29m0-5h-9.12v1.07a2.47,2.47,0,0,1-1.42,2.12,2.32,2.32,0,0,1-.95.21h0a2.72,2.72,0,0,1-1.36-.65l0,15.6a2.25,2.25,0,0,1,1.52-.62h0a2.34,2.34,0,0,1,.92.21,2.25,2.25,0,0,1,1.31,2l0,19.26a2.23,2.23,0,0,1-1.3,2,2.17,2.17,0,0,1-.91.21,2.24,2.24,0,0,1-1.5-.62l0,15.63a2.2,2.2,0,0,1,1.52-.62h0a2.18,2.18,0,0,1,.92.21,2.24,2.24,0,0,1,1.31,2l0,19.27a2.23,2.23,0,0,1-1.3,2,2.32,2.32,0,0,1-.91.2h0a2.15,2.15,0,0,1-1.5-.62l0,15.63a2.2,2.2,0,0,1,1.52-.62h0a2.18,2.18,0,0,1,.92.21,2.24,2.24,0,0,1,1.31,2l0,19.26a2.23,2.23,0,0,1-1.3,2,2.16,2.16,0,0,1-.91.2,2.19,2.19,0,0,1-1.5-.61v15.61a2.05,2.05,0,0,1,1.21-.65h0a2.17,2.17,0,0,1,1,.22c.81.37,1,2.12,1,2.12l0,19.21a2.23,2.23,0,0,1-2.21,2.22h0a2.18,2.18,0,0,1-1.51-.62v15.63a2.19,2.19,0,0,1,1.51-.62h0a2.17,2.17,0,0,1,.91.21,2.23,2.23,0,0,1,1.32,2l0,19.27a2.23,2.23,0,0,1-1.31,2,2.12,2.12,0,0,1-.9.2,2.21,2.21,0,0,1-1.51-.61v15.62a2.23,2.23,0,0,1,1.51-.61h0a2.16,2.16,0,0,1,.91.2,2.25,2.25,0,0,1,1.32,2l0,19.26a2.19,2.19,0,0,1-1.3,2,2.09,2.09,0,0,1-.9.21h0a2.22,2.22,0,0,1-1.51-.62v15.63a2.19,2.19,0,0,1,1.51-.62h0a2.17,2.17,0,0,1,.91.21,2.23,2.23,0,0,1,1.32,2l0,19.27a2.23,2.23,0,0,1-1.31,2,2.08,2.08,0,0,1-.9.2,2.21,2.21,0,0,1-1.51-.61V629.9a2.19,2.19,0,0,1,1.51-.62h0a2.13,2.13,0,0,1,.91.21,2.23,2.23,0,0,1,1.32,2l0,19.26a2.23,2.23,0,0,1-1.31,2,2.08,2.08,0,0,1-.9.2,2.21,2.21,0,0,1-1.51-.61V668a2.19,2.19,0,0,1,1.51-.62h0a2.16,2.16,0,0,1,.91.2,2.25,2.25,0,0,1,1.32,2l0,19.26a2.21,2.21,0,0,1-1.3,2,2.24,2.24,0,0,1-.9.2h0a2.18,2.18,0,0,1-1.51-.62v15.63a2.19,2.19,0,0,1,1.51-.62h0a2.17,2.17,0,0,1,.91.21,2.23,2.23,0,0,1,1.32,2l0,19.26a2.23,2.23,0,0,1-1.31,2,2.08,2.08,0,0,1-.9.2h0a2.21,2.21,0,0,1-1.51-.61v15.62a2.23,2.23,0,0,1,1.51-.61h0a2.16,2.16,0,0,1,.91.2,2.25,2.25,0,0,1,1.32,2l0,19.26a2.21,2.21,0,0,1-1.31,2,2.09,2.09,0,0,1-.9.21h0a2.18,2.18,0,0,1-1.51-.62v15.63a2.18,2.18,0,0,1,1.51-.62h0a2.17,2.17,0,0,1,.91.21,2.23,2.23,0,0,1,1.32,2v19.21s-.61,1.75-1.41,2.11a2.25,2.25,0,0,1-1,.22h0a1.55,1.55,0,0,1-1.37-.65v8.61l2.32-.53,10.53.53H936a64.44,64.44,0,0,1,64.3-64.45h.08v-48.3A18.65,18.65,0,0,1,981.87,682c0-10.33,18.46-18.68,18.46-18.68V648.91s-18.41-8.39-18.4-18.72,18.93-18.68,18.93-18.68V597.09S982,588.69,982,578.36s18.34-18.68,18.34-18.68V545.27s-18.29-8.4-18.28-18.73,18.81-18.68,18.81-18.68V493.44s-18.76-8.39-18.75-18.72A18.71,18.71,0,0,1,1000.84,456h0V409.83c-35.58,0-64.37-64.54-64.37-64.54L785,344.75Z"/><path class="cls-5" d="M949.14,629.72H794.66v12.21H949.14Z"/><path class="cls-5" d="M949.14,593.07H794.66v12.21H949.14Z"/><path class="cls-5" d="M949.14,550.31H794.66v12.21H949.14Z"/><path class="cls-5" d="M949.14,422H794.66v9.29H949.14Z"/><path class="cls-5" d="M949.14,675.66H794.54v6.11h154.6Z"/><path class="cls-5" d="M949.14,541.27H794.66v6.1H949.14Z"/><path class="cls-5" d="M949.14,574.74H794.66v6.11H949.14Z"/><path class="cls-5" d="M949.14,565.7H794.66v6.11H949.14Z"/><path class="cls-5" d="M949.14,501.44H794.66v6.11H949.14Z"/><path class="cls-5" d="M949.14,449.64H794.66v6.11H949.14Z"/><path class="cls-5" d="M949.14,440.35H794.66v6.11H949.14Z"/><path class="cls-5" d="M794.54,406.88V413h154.6v-6.11Z"/><path class="cls-5" d="M949.14,660.26H794.66v3.18H949.14Z"/><path class="cls-5" d="M949.14,532H794.66v3.17H949.14Z"/><path class="cls-5" d="M949.14,525.87H794.66v3.18H949.14Z"/><path class="cls-5" d="M949.14,611.39H794.66v3.18H949.14Z"/><path class="cls-5" d="M949.14,587H794.66v3.17H949.14Z"/><path class="cls-5" d="M949.14,477H794.66v3.18H949.14Z"/><path class="cls-5" d="M949.14,464.79H794.66V468H949.14Z"/><path class="cls-5" d="M949.14,415.92H794.66v3.18H949.14Z"/><path class="cls-5" d="M949.14,669.55H794.66v2.93H949.14Z"/><path class="cls-5" d="M949.14,492.39H794.66v2.94H949.14Z"/><path class="cls-5" d="M949.14,645.11H794.66v2.94H949.14Z"/><path class="cls-5" d="M949.14,620.68H794.66v2.93H949.14Z"/><path class="cls-5" d="M949.14,510.73H794.66v2.93H949.14Z"/><g id="ticketi-big"><path class="cls-1" d="M257,621v18.74a44.37,44.37,0,0,1-10.22.91q-24.57,0-24.56-24.4V577.54H212V560.79h10.31V541.47h21.9v19.32H257v16.75H244.16V614q0,7.76,7.93,7.75Z"/><path class="cls-1" d="M290.49,546.53a14,14,0,0,1-18.85,0,12.57,12.57,0,0,1-3.65-9.28,12.82,12.82,0,0,1,3.65-9.34,13.77,13.77,0,0,1,18.85,0,12.82,12.82,0,0,1,3.65,9.34A12.57,12.57,0,0,1,290.49,546.53Zm-20.57,94.13V560.79h21.9v79.87Z"/><path class="cls-1" d="M317.12,630.66q-11.65-12.27-11.65-30.58t11.65-30.58q11.65-12.27,29.49-12.28,17.52,0,27.61,9.86t11.49,22H362.88a15.15,15.15,0,0,0-5.79-8.76,17.14,17.14,0,0,0-10.64-3.44q-8.76,0-13.76,6.34t-5,16.81q0,10.49,5,16.82t13.76,6.33a17.08,17.08,0,0,0,10.64-3.44,15.09,15.09,0,0,0,5.79-8.76h22.83q-1.4,12.21-11.49,22.06t-27.61,9.85Q328.78,642.94,317.12,630.66Z"/><path class="cls-1" d="M448.81,560.79h27.45l-30.23,34,32.39,45.88H452.51l-21-31.55-12.19,13.72v17.83h-21.9V526h21.9v71.41Z"/><path class="cls-1" d="M557.26,607.17H499.5a19,19,0,0,0,6.08,11.94q5,4.33,13.22,4.33a19.72,19.72,0,0,0,9.35-2.2,13.1,13.1,0,0,0,6-6.34h21.73a36.28,36.28,0,0,1-13.75,19.56A39.37,39.37,0,0,1,518.2,642q-17.64,0-28.89-11.71t-11.24-30.09q0-17.79,11.24-29.65T518,558.69q17.49,0,28.51,11.78t11,29.72Zm-39.37-30.51a17.82,17.82,0,0,0-12,4,18.72,18.72,0,0,0-6.08,11H536a18.26,18.26,0,0,0-5.93-11Q525.34,576.67,517.89,576.66Z"/><path class="cls-1" d="M610,621v18.74a44.37,44.37,0,0,1-10.22.91q-24.57,0-24.56-24.4V577.54H564.92V560.79h10.31V541.47h21.89v19.32H610v16.75H597.12V614q0,7.76,7.94,7.75Z"/><path class="cls-1" d="M643.15,546.53a14,14,0,0,1-18.85,0,12.57,12.57,0,0,1-3.65-9.28,12.82,12.82,0,0,1,3.65-9.34,13.77,13.77,0,0,1,18.85,0,12.82,12.82,0,0,1,3.65,9.34A12.57,12.57,0,0,1,643.15,546.53Zm-20.26,94.13V560.79h21.9v79.87Z"/></g></g></g></g></svg>